<svg width="46" height="45" viewBox="0 0 46 45" fill="none" xmlns="http://www.w3.org/2000/svg">
<path d="M21.5498 21.1189C20.8185 20.4441 20.8185 19.9533 18.7747 19.9738C18.0145 20.0964 17.3052 20.4634 16.7373 21.028C16.1695 21.5926 15.769 22.3291 15.587 23.1432C15.4175 23.7553 15.4217 24.409 15.5991 25.0185C15.7764 25.6279 16.1187 26.1646 16.5808 26.5581C17.2274 26.9569 17.9658 27.144 18.7074 27.0969C19.4491 27.0497 20.1625 26.7703 20.7622 26.2922C21.4004 25.8963 21.8975 25.2773 22.1731 24.5352C22.4488 23.793 22.4868 22.9712 22.281 22.2026C22.1223 21.7815 21.8712 21.4094 21.5498 21.1189ZM19.6747 24.6155C19.3891 24.8478 19.0487 24.9866 18.6934 25.0156C18.338 25.0445 17.9825 24.9625 17.6684 24.7791C17.1996 24.4519 17.2746 23.7567 17.4621 23.1432C17.6496 22.5298 18.1559 21.5483 18.7934 21.4256C19.0906 21.3864 19.392 21.4253 19.6726 21.5391C19.9531 21.653 20.2046 21.8384 20.406 22.0799C20.5926 22.2565 20.7238 22.4925 20.781 22.7547C21.0435 23.5522 20.4247 24.2065 19.7497 24.6155H19.6747Z" fill="#EC1414"/>
<path d="M10.4495 31.8338C9.71817 31.159 9.71817 30.6682 7.6556 30.6887C6.89884 30.815 6.19358 31.1838 5.62937 31.7481C5.06516 32.3124 4.66745 33.0468 4.48673 33.8581C4.30041 34.4815 4.29593 35.1525 4.47391 35.7787C4.65189 36.405 5.00358 36.9556 5.48052 37.3547C6.12713 37.7536 6.86549 37.9407 7.60713 37.8936C8.34876 37.8464 9.0622 37.567 9.66192 37.0889C10.3001 36.693 10.7972 36.074 11.0728 35.3319C11.3484 34.5897 11.3865 33.7679 11.1807 32.9993C11.033 32.5486 10.7811 32.1472 10.4495 31.8338ZM8.57438 35.3304C8.28877 35.5627 7.94837 35.7015 7.59304 35.7305C7.23771 35.7594 6.88217 35.6774 6.56806 35.494C6.09929 35.1668 6.17429 34.4716 6.3618 33.8581C6.54931 33.2447 7.03683 32.2632 7.6931 32.1405C7.98726 32.1046 8.28504 32.1452 8.56205 32.2589C8.83907 32.3727 9.08746 32.5563 9.28691 32.7948C9.47858 32.9703 9.61606 33.2059 9.68067 33.4696C9.94318 34.2671 9.38066 34.9214 8.64938 35.3304H8.57438Z" fill="#EC1414"/>
<path d="M31.4502 20.853C30.6814 20.1374 30.6814 19.6875 28.6563 19.6875C27.8971 19.8153 27.1901 20.1871 26.6257 20.7553C26.0612 21.3235 25.6649 22.0623 25.4875 22.8774C25.3026 23.4977 25.2989 24.1653 25.4769 24.788C25.655 25.4107 26.0059 25.9577 26.4813 26.3536C27.1234 26.7679 27.8643 26.964 28.6092 26.9166C29.354 26.8692 30.069 26.5807 30.6627 26.0878C31.3009 25.6919 31.798 25.0728 32.0736 24.3307C32.3492 23.5886 32.3872 22.7667 32.1815 21.9981C32.034 21.5531 31.7818 21.1582 31.4502 20.853ZM29.5751 24.3497C29.2895 24.582 28.9491 24.7208 28.5938 24.7498C28.2385 24.7787 27.8829 24.6967 27.5688 24.5133C27.1 24.1861 27.175 23.4704 27.3625 22.857C27.5501 22.2435 28.0376 21.262 28.6938 21.1598C29.1235 21.0828 29.5643 21.1713 29.9407 21.4101C30.317 21.6489 30.6054 22.0231 30.7564 22.4684C30.9439 23.2864 30.3252 23.9203 29.6501 24.3497H29.5751Z" fill="#EC1414"/>
<path d="M20.3498 31.5679C19.6185 30.8932 19.6185 30.4024 17.5559 30.4024C16.7909 30.5139 16.0761 30.88 15.509 31.4509C14.9418 32.0218 14.5501 32.7696 14.3871 33.5923C14.1993 34.2124 14.1942 34.8809 14.3724 35.5043C14.5507 36.1277 14.9033 36.6746 15.3808 37.0685C16.0248 37.48 16.7667 37.6725 17.5116 37.6215C18.2565 37.5705 18.9705 37.2783 19.5623 36.7822C20.2005 36.3863 20.6975 35.7673 20.9732 35.0251C21.2488 34.283 21.2868 33.4612 21.0811 32.6926C20.9307 32.255 20.6787 31.8675 20.3498 31.5679ZM18.4747 35.0646C18.1891 35.2969 17.8487 35.4357 17.4934 35.4647C17.138 35.4936 16.7825 35.4116 16.4684 35.2282C15.9809 34.901 16.0746 34.1853 16.2621 33.5719C16.4496 32.9584 16.9372 31.9769 17.5934 31.8747C17.8861 31.8363 18.1829 31.8737 18.4598 31.9838C18.7368 32.0939 18.986 32.2737 19.1872 32.5086C19.3789 32.6841 19.5164 32.9197 19.581 33.1833C19.8248 34.0013 19.2247 34.7374 18.5497 35.0646H18.4747Z" fill="#EC1414"/>
<path d="M39.9443 21.0575C39.213 20.3623 39.1942 19.892 37.1504 19.892C36.3854 20.0034 35.6706 20.3696 35.1035 20.9405C34.5363 21.5114 34.1445 22.2592 33.9815 23.0819C33.7938 23.7019 33.7887 24.3705 33.9669 24.9939C34.1451 25.6172 34.4977 26.1642 34.9753 26.5581C35.6175 26.9724 36.3584 27.1684 37.1032 27.1211C37.8481 27.0737 38.5631 26.7851 39.1567 26.2922C39.7949 25.8963 40.292 25.2773 40.5676 24.5352C40.8433 23.793 40.8813 22.9712 40.6755 22.2026C40.528 21.7576 40.2758 21.3627 39.9443 21.0575ZM38.0692 24.5541C37.7836 24.7865 37.4432 24.9253 37.0879 24.9542C36.7325 24.9832 36.377 24.9012 36.0629 24.7177C35.5754 24.3906 35.6691 23.6749 35.8566 23.0614C36.0441 22.448 36.5316 21.4665 37.1879 21.3642C37.6058 21.3072 38.0292 21.4053 38.3898 21.6427C38.7503 21.8802 39.0271 22.243 39.1755 22.6729C39.3817 23.4908 38.8192 24.1247 38.1442 24.5132L38.0692 24.5541Z" fill="#EC1414"/>
<path d="M27.2876 30.6476C26.5308 30.774 25.8255 31.1428 25.2613 31.7071C24.6971 32.2714 24.2994 33.0058 24.1187 33.8171C23.9324 34.4404 23.9279 35.1115 24.1059 35.7377C24.2839 36.3639 24.6355 36.9146 25.1125 37.3137C25.7605 37.7077 26.498 37.892 27.2387 37.8449C27.9793 37.7978 28.6923 37.5213 29.2939 37.0479C29.9321 36.652 30.4292 36.033 30.7048 35.2908C30.9804 34.5487 31.0184 33.7269 30.8127 32.9583C30.5208 32.2193 30.0236 31.5987 29.3912 31.1842C28.7587 30.7697 28.023 30.582 27.2876 30.6476ZM28.2813 35.2894C27.9957 35.5217 27.6553 35.6605 27.3 35.6895C26.9447 35.7184 26.5891 35.6364 26.275 35.4529C25.8063 35.1258 25.8813 34.4305 26.0688 33.7967C26.2563 33.1628 26.7625 32.2221 27.4001 32.0995C27.6927 32.0611 27.9895 32.0985 28.2665 32.2086C28.5434 32.3187 28.7926 32.4985 28.9939 32.7334C29.1821 32.9122 29.3188 33.1465 29.3876 33.4081C29.5751 34.1647 28.9564 34.7373 28.2813 35.228V35.2894Z" fill="#EC1414"/>
<path d="M29.5563 5.84413C29.3445 7.39451 29.4994 8.97818 30.0063 10.445C30.3452 11.1641 30.9136 11.7233 31.6044 12.0171C32.2952 12.3108 33.0606 12.319 33.7565 12.0399C34.2299 11.9149 34.6668 11.6621 35.0272 11.3048C35.3876 10.9475 35.6599 10.4971 35.8191 9.9951C36.1257 8.84765 36.24 7.64929 36.1566 6.45758V5.76234V3.47215C36.1846 3.0194 36.1219 2.56543 35.973 2.14172C35.8241 1.71801 35.5924 1.3347 35.294 1.01838C34.2944 0.278875 33.0752 -0.0206467 31.8814 0.180007C31.8011 0.177267 31.721 0.192167 31.646 0.223822C31.5711 0.255477 31.5027 0.30324 31.445 0.364276C31.3872 0.425312 31.3414 0.498376 31.31 0.579127C31.2787 0.659878 31.2626 0.746669 31.2626 0.834346C31.2166 0.708256 31.131 0.604089 31.0211 0.540421C30.9112 0.476753 30.7842 0.457724 30.6626 0.486729C30.54 0.524157 30.4279 0.594196 30.3363 0.690559C30.2446 0.786922 30.1764 0.906592 30.1376 1.03883C30.0258 1.75451 29.9819 2.48083 30.0063 3.20633L29.7438 4.45366C29.6461 4.91068 29.5834 5.37578 29.5563 5.84413ZM31.1126 5.00576C31.1126 5.00576 31.4126 1.20241 31.4126 1.05928C31.4599 1.1796 31.5383 1.28233 31.6382 1.35494C31.738 1.42756 31.8551 1.46692 31.9752 1.46824C33.6627 1.46824 34.3753 1.81586 34.5628 2.53154C34.6237 3.83255 34.5418 5.13684 34.319 6.41668C34.3241 7.20832 34.2423 7.99779 34.0752 8.76821C33.944 9.25897 33.7752 9.74972 33.3065 9.87241C33.1235 9.96278 32.9244 10.0075 32.7236 10.0033C32.5227 9.9991 32.3253 9.94609 32.1457 9.84814C31.966 9.75018 31.8087 9.60975 31.6851 9.43708C31.5616 9.26441 31.4749 9.06384 31.4314 8.85C31.1334 7.59617 31.0257 6.29756 31.1126 5.00576Z" fill="#EC1414"/>
<path d="M16.0371 5.21032C16.0371 5.4148 16.1683 5.61928 16.8996 5.70108C17.9496 5.70108 18.3997 6.06914 19.8435 6.15094H22.2061H24.5499C25.8437 6.15094 26.6312 6.02825 27.9438 5.92601C28.5625 5.92601 29.0501 4.61733 28.225 4.3924C26.8 4.33105 25.8249 4.06523 24.3811 4.06523H20.631C19.4715 4.06105 18.313 4.13617 17.1621 4.29016C16.3746 4.3515 16.0183 4.9036 16.0371 5.21032Z" fill="#EC1414"/>
<path d="M43.1319 6.25298C42.4991 5.50229 41.6661 4.9873 40.7505 4.78071C39.8828 4.53043 38.9838 4.43377 38.0879 4.49444C36.7566 4.69892 37.1129 5.70088 37.8067 5.70088C38.4349 5.69401 39.0625 5.74876 39.6817 5.86446C40.6171 5.93729 41.4934 6.38961 42.1381 7.13225C42.575 8.08796 42.8241 9.13268 42.8694 10.1995C43.0569 11.7944 43.2069 13.8597 43.3006 16.1294C40.5443 16.1294 35.0128 15.884 28.8063 15.7613H22.4499H16.0934C9.38062 15.8227 3.54916 16.0681 1.71159 16.1499C1.69969 13.0648 1.98883 9.98704 2.57412 6.96866C2.75858 6.59939 3.02902 6.28965 3.35821 6.07067C3.6874 5.85169 4.0637 5.73119 4.44919 5.72133C5.22796 5.51468 6.03005 5.43203 6.83053 5.47595C6.93652 5.45606 7.03395 5.39988 7.10869 5.31554C7.18344 5.23121 7.23161 5.12312 7.24624 5.00692C7.26086 4.89073 7.24117 4.77247 7.19003 4.6693C7.13889 4.56612 7.05894 4.48339 6.96178 4.4331C5.80021 4.15869 4.59823 4.15869 3.43666 4.4331C2.97655 4.55381 2.54798 4.78802 2.1839 5.1177C1.81982 5.44738 1.52995 5.86375 1.33658 6.33477C0.605301 8.21599 -0.144727 18.6036 0.0240296 27.8053C0.155284 34.4918 0.886562 40.4831 2.23661 42.2825C3.2304 43.5912 5.81799 44.3273 9.08061 44.6136C14.1621 44.9817 20.9123 44.3682 24.3999 44.3682C28.7798 44.5195 33.1641 44.3624 37.5254 43.8979C39.4915 43.7117 41.4038 43.1 43.1506 42.0985C43.6594 41.6281 43.9983 40.9759 44.1069 40.2582C44.7745 36.0591 45.0759 31.8005 45.0069 27.5395C45.0069 18.3787 44.3132 7.76614 43.1319 6.25298ZM42.6631 37.8657C42.5586 38.7631 42.3507 39.6425 42.0443 40.4831C39.946 41.4409 37.6997 41.9544 35.4253 41.9963C31.0377 42.3848 26.2 42.2007 24.3999 42.2007C20.9498 42.2007 14.2558 42.8346 9.21187 42.5075C6.62427 42.3439 4.48669 42.0576 3.69917 41.0352C2.42412 39.4198 1.88035 33.9193 1.71159 27.8462C1.58694 24.3511 1.57443 20.8523 1.67409 17.3563C3.54916 17.3563 9.26812 17.6835 16.0934 17.8266H22.4499H28.8063C35.0503 17.7039 40.6005 17.5199 43.3381 17.4381C43.3381 19.4829 43.4319 21.7935 43.3381 24.0428C43.3757 28.6613 43.1503 33.2778 42.6631 37.8657Z" fill="#EC1414"/>
<path d="M8.40553 5.78284C8.26122 7.42021 8.40764 9.07256 8.8368 10.6495C9.17569 11.3686 9.74407 11.9278 10.4348 12.2216C11.1256 12.5154 11.8911 12.5235 12.5869 12.2444C13.0645 12.1242 13.5061 11.8734 13.8702 11.5157C14.2343 11.158 14.509 10.7051 14.6683 10.1996C14.9872 9.04082 15.1017 7.82656 15.0058 6.62121V4.45371V3.63579C15.0313 3.18331 14.9675 2.73012 14.8187 2.30682C14.6699 1.88352 14.4396 1.49996 14.1432 1.18202C13.147 0.433459 11.9269 0.126405 10.7306 0.323195C10.5665 0.323195 10.4091 0.394289 10.2931 0.520836C10.177 0.647383 10.1118 0.819018 10.1118 0.997983C10.0658 0.871893 9.98025 0.767725 9.87035 0.704057C9.76045 0.640389 9.63339 0.621361 9.51182 0.650365C9.38924 0.687793 9.27709 0.757832 9.18545 0.854195C9.09382 0.950558 9.02556 1.07023 8.9868 1.20246C8.84603 1.87405 8.7644 2.55876 8.74304 3.24727L8.53679 4.33102V4.86267L8.40553 5.78284ZM9.94309 5.18984C9.94309 5.18984 10.2431 1.40694 10.2431 1.24336C10.2853 1.3691 10.3619 1.4777 10.4625 1.55449C10.5631 1.63128 10.6828 1.67256 10.8056 1.67277C12.4932 1.67277 13.2057 2.02039 13.3932 2.73607C13.4479 4.0379 13.3598 5.34219 13.1307 6.62121C13.1324 7.41265 13.0506 8.20168 12.8869 8.97274C12.7744 9.44305 12.6057 9.9338 12.1369 10.0565C11.954 10.1469 11.7548 10.1916 11.554 10.1874C11.3532 10.1832 11.1558 10.1302 10.9761 10.0322C10.7965 9.93427 10.6391 9.79384 10.5156 9.62116C10.392 9.44849 10.3053 9.24792 10.2619 9.03409C9.96041 7.7809 9.85268 6.48167 9.94309 5.18984Z" fill="#EC1414"/>
</svg>
