<svg width="50" height="52" viewBox="0 0 50 52" fill="none" xmlns="http://www.w3.org/2000/svg">
<rect x="6" y="0.910645" width="44" height="44.6122" rx="15" fill="#FF6200" fill-opacity="0.16"/>
<g clip-path="url(#clip0_10435_673)">
<path fill-rule="evenodd" clip-rule="evenodd" d="M44 34.18C43.3597 32.8807 42.5855 31.6518 41.69 30.5134C41.0105 29.6711 40.1087 29.036 39.0867 28.68C38.5816 28.5592 38.052 28.5911 37.565 28.7717C36.85 28.9917 35.9884 29.4134 35.2184 29.6884C34.4484 29.9634 34.1 29.5784 33.8067 29.1934C33.22 28.3867 32.7617 27.36 32.2484 26.6817C31.4975 25.6455 30.494 24.8187 29.3334 24.28C28.956 24.1436 28.5531 24.0926 28.1536 24.1306C27.7542 24.1687 27.3682 24.2948 27.0234 24.5C26.3855 24.8446 25.9059 25.4228 25.685 26.1134C25.4124 27.0068 25.4643 27.9679 25.8317 28.8267C26.1348 29.5102 26.5163 30.1562 26.9684 30.7517C27.9359 31.875 28.8416 33.0501 29.6817 34.2717C29.92 34.6567 30.1767 35.0417 30.3967 35.445C29.6957 35.0995 28.9576 34.835 28.1967 34.6567C27.6917 34.5653 27.1712 34.6161 26.6934 34.8034C26.3726 34.9419 26.0938 35.162 25.8847 35.4419C25.6756 35.7217 25.5436 36.0515 25.5017 36.3984C25.4664 37.5063 25.7668 38.5991 26.3634 39.5334C26.9179 40.3503 27.6596 41.0228 28.5267 41.495C30.25 42.4484 32.3034 42.5034 34.3384 43.3284C34.4083 43.3775 34.4881 43.4108 34.5722 43.4259C34.6563 43.441 34.7427 43.4376 34.8254 43.4158C34.908 43.394 34.9849 43.3544 35.0507 43.2998C35.1164 43.2452 35.1694 43.1769 35.206 43.0996C35.2426 43.0224 35.2619 42.9381 35.2625 42.8526C35.2631 42.7671 35.245 42.6826 35.2095 42.6048C35.174 42.5271 35.122 42.458 35.057 42.4025C34.992 42.347 34.9157 42.3063 34.8334 42.2834C33.165 41.44 31.4417 41.2017 29.9384 40.45C29.0135 40.0419 28.2383 39.3564 27.72 38.4884C27.5195 38.1345 27.3771 37.7507 27.2984 37.3517C27.2817 37.132 27.2817 36.9114 27.2984 36.6917C27.2984 36.5817 27.2984 36.4534 27.4084 36.4167C27.8494 36.3515 28.2992 36.4492 28.6734 36.6917C29.2967 36.9667 29.9567 37.315 30.5067 37.535C30.9344 37.698 31.3874 37.7849 31.845 37.7917C32.1226 37.7921 32.3897 37.6857 32.5911 37.4946C32.7924 37.3035 32.9126 37.0423 32.9267 36.765C32.9254 36.3523 32.8824 35.9408 32.7984 35.5367C32.6984 35.1355 32.5507 34.7477 32.3584 34.3817C32.12 33.9234 31.845 33.4834 31.6067 33.0434C30.7306 31.7676 29.7818 30.5434 28.765 29.3767C28.4174 28.9225 28.1222 28.4305 27.885 27.91C27.7486 27.6055 27.6979 27.2696 27.7384 26.9384C27.7481 26.8301 27.783 26.7257 27.8403 26.6334C27.8976 26.5411 27.9757 26.4634 28.0684 26.4067C28.3984 26.205 28.7467 26.4067 29.0584 26.645C29.593 27.06 30.0734 27.5404 30.4884 28.075C31.02 28.735 31.5334 29.725 32.1384 30.5134C32.4561 30.9331 32.84 31.2984 33.275 31.595C33.5497 31.7557 33.8564 31.8537 34.1733 31.8822C34.4902 31.9108 34.8094 31.869 35.1084 31.76C35.9338 31.4638 36.7417 31.1211 37.5284 30.7334C37.95 30.55 38.2984 30.3117 38.555 30.385C39.3107 30.6035 39.9902 31.029 40.5167 31.6134C41.3829 32.6215 42.1445 33.7148 42.79 34.8767C42.8927 35.001 43.0363 35.0847 43.1951 35.1127C43.3539 35.1407 43.5175 35.1112 43.6565 35.0296C43.7955 34.9479 43.9009 34.8194 43.9538 34.6671C44.0067 34.5148 44.0036 34.3486 43.945 34.1984L44 34.18Z" fill="#FF6200"/>
<path fill-rule="evenodd" clip-rule="evenodd" d="M11.2567 23.1067C11.3234 23.0674 11.3814 23.0148 11.4272 22.9523C11.4729 22.8897 11.5053 22.8185 11.5225 22.7429C11.5396 22.6674 11.5412 22.5891 11.527 22.5129C11.5128 22.4368 11.4832 22.3643 11.44 22.3C11.3536 22.1678 11.219 22.0747 11.0648 22.0404C10.9107 22.0062 10.7492 22.0335 10.615 22.1167L8.67167 23.4C8.25001 23.7117 7.48001 24.0783 6.83834 24.5183C6.50216 24.79 6.21665 25.1189 5.99501 25.49C5.90343 25.685 5.85596 25.8979 5.85596 26.1133C5.85596 26.3288 5.90343 26.5416 5.99501 26.7367C6.27343 27.2855 6.65284 27.7768 7.11334 28.185C7.50552 28.4924 7.92963 28.7567 8.37834 28.9733C9.27667 29.4133 10.2117 29.6883 11.1467 30.0917C11.2969 30.1502 11.4631 30.1533 11.6154 30.1005C11.7677 30.0476 11.8962 29.9422 11.9779 29.8032C12.0596 29.6641 12.089 29.5006 12.061 29.3418C12.033 29.183 11.9493 29.0394 11.825 28.9367C11.1467 28.4417 10.395 28.02 9.69834 27.5433C9.30146 27.2692 8.94373 26.9423 8.63501 26.5717C8.52506 26.5005 8.42086 26.4208 8.32334 26.3333L9.86334 24.6833L11.2567 23.1067Z" fill="#FF6200"/>
<path fill-rule="evenodd" clip-rule="evenodd" d="M16.28 20.1001C15.675 21.2734 14.9967 22.3917 14.4467 23.5834C14.2031 24.0901 13.9889 24.6104 13.805 25.1417C13.6034 25.6551 13.4384 26.2051 13.2734 26.7367C12.9067 28.0201 12.65 29.3217 12.3934 30.6051C12.3648 30.7672 12.3961 30.9343 12.4816 31.075C12.5671 31.2158 12.7009 31.3206 12.858 31.37C13.0151 31.4193 13.1848 31.4099 13.3354 31.3433C13.4861 31.2768 13.6074 31.1578 13.6767 31.0084C14.19 29.7801 14.795 28.6067 15.3267 27.3417C15.675 26.5351 16.0234 25.7101 16.2984 24.8667C16.775 23.4184 17.05 21.9701 17.4167 20.5034C17.466 20.3547 17.4575 20.193 17.3929 20.0503C17.3284 19.9077 17.2125 19.7945 17.0684 19.7334C16.9926 19.7043 16.9118 19.6908 16.8308 19.6936C16.7497 19.6964 16.67 19.7155 16.5965 19.7497C16.523 19.7839 16.457 19.8325 16.4027 19.8927C16.3483 19.9529 16.3066 20.0234 16.28 20.1001Z" fill="#FF6200"/>
<path fill-rule="evenodd" clip-rule="evenodd" d="M20.625 26.4433L19.7267 27.4883L18.1317 29.0833C17.9844 29.1838 17.8826 29.3382 17.8482 29.5132C17.8139 29.6882 17.8499 29.8697 17.9484 30.0183C17.995 30.0922 18.0558 30.156 18.1272 30.2061C18.1987 30.2563 18.2794 30.2918 18.3646 30.3105C18.4499 30.3293 18.538 30.3309 18.6239 30.3154C18.7098 30.2999 18.7918 30.2674 18.865 30.22L20.9367 28.845L22.1467 27.9283C22.5548 27.5647 22.9235 27.1591 23.2467 26.7183C23.5446 26.3382 23.7459 25.8916 23.8334 25.4167C23.839 25.2452 23.8075 25.0745 23.741 24.9163C23.6746 24.7581 23.5748 24.6161 23.4484 24.5C23.1518 24.216 22.8261 23.9641 22.4767 23.7483C21.8844 23.3901 21.2723 23.0657 20.6434 22.7767C20.0464 22.4982 19.4344 22.2534 18.81 22.0433C18.6663 21.9804 18.5037 21.9759 18.3566 22.0306C18.2095 22.0853 18.0894 22.1951 18.0217 22.3367C17.9588 22.4805 17.9542 22.6431 18.009 22.7902C18.0637 22.9372 18.1735 23.0573 18.315 23.125C18.8271 23.4463 19.3171 23.8015 19.7817 24.1883C20.2416 24.5694 20.6764 24.9797 21.0834 25.4167C21.3217 25.5267 21.6517 25.27 20.625 26.4433Z" fill="#FF6200"/>
<path fill-rule="evenodd" clip-rule="evenodd" d="M23.7051 12.5467C24.2551 12.6567 25.0801 11.0617 25.0801 11.025C25.159 10.8781 25.203 10.715 25.2084 10.5484C25.2268 10.3777 25.2268 10.2056 25.2084 10.035C25.0068 8.01836 24.4751 8.20169 24.2918 8.09169C24.1084 7.98169 23.6868 8.09169 23.1184 9.76002C23.045 9.89733 22.9954 10.0461 22.9718 10.2C22.9531 10.3584 22.9531 10.5183 22.9718 10.6767C22.9718 10.6767 23.1734 12.455 23.7051 12.5467Z" fill="#FF6200"/>
<path fill-rule="evenodd" clip-rule="evenodd" d="M31.7901 15.205C31.9708 15.0911 32.137 14.9556 32.2851 14.8017C32.4345 14.656 32.5695 14.4964 32.6884 14.325C34.0268 12.62 33.9168 12.4917 33.6784 12.1067C33.4401 11.7217 33.0001 11.6667 31.2584 12.7483C31.0677 12.8723 30.884 13.007 30.7084 13.1517C30.5521 13.3142 30.4052 13.4856 30.2684 13.665C29.0218 15.4983 29.3884 15.8283 29.5351 15.975C29.6818 16.1217 29.9568 16.4517 31.7901 15.205Z" fill="#FF6200"/>
<path fill-rule="evenodd" clip-rule="evenodd" d="M32.1567 19.8617C32.2667 20.5584 34.7967 20.5217 34.8517 20.5217C35.2178 20.4884 35.5799 20.4209 35.9334 20.3201C38.1334 19.7701 38.225 19.6051 38.225 19.1834C38.225 18.7617 37.8767 18.2851 35.7317 18.1751C35.4758 18.148 35.2177 18.148 34.9617 18.1751C34.7137 18.2126 34.4686 18.2677 34.2284 18.3401C32.01 19.2201 32.12 19.6234 32.1567 19.8617Z" fill="#FF6200"/>
<path d="M8.7084 41.5317C8.63135 41.534 8.55551 41.5516 8.48524 41.5833C8.41497 41.6149 8.35163 41.6602 8.29885 41.7164C8.24606 41.7726 8.20487 41.8386 8.17763 41.9107C8.15038 41.9828 8.13762 42.0596 8.14007 42.1367C8.14007 44.9783 8.14007 45.1983 8.9284 45.8033C9.46167 46.237 10.0898 46.5385 10.7617 46.6833C10.7189 47.6257 10.9644 48.5588 11.4656 49.3581C11.9668 50.1573 12.6997 50.7847 13.5667 51.1567C14.3523 51.5253 15.196 51.7549 16.0601 51.835C16.9078 51.9125 17.7624 51.8506 18.5901 51.6517C19.6219 51.4909 20.5826 51.0268 21.3498 50.3183C22.1171 49.6099 22.6561 48.6891 22.8984 47.6733C22.9355 47.5834 22.9528 47.4866 22.9492 47.3894C22.9455 47.2923 22.9211 47.197 22.8774 47.1101C22.8337 47.0232 22.7719 46.9467 22.6961 46.8859C22.6203 46.825 22.5323 46.7811 22.438 46.7572C22.3437 46.7333 22.2454 46.7299 22.1498 46.7473C22.0541 46.7648 21.9633 46.8026 21.8835 46.8581C21.8037 46.9137 21.7368 46.9858 21.6874 47.0695C21.6379 47.1532 21.607 47.2466 21.5967 47.3433C21.2988 47.9958 20.8221 48.5505 20.2218 48.9431C19.6215 49.3358 18.9223 49.5502 18.2051 49.5617C17.5958 49.6283 16.981 49.6283 16.3717 49.5617C15.7452 49.4994 15.1292 49.3577 14.5384 49.14C13.995 48.9977 13.4958 48.7219 13.086 48.3377C12.6762 47.9535 12.3688 47.4731 12.1917 46.94L12.7051 47.05C14.6208 47.4029 16.5718 47.526 18.5167 47.4167C19.8584 47.3177 21.1762 47.0083 22.4217 46.5L23.9251 45.5833C24.1073 45.4434 24.2734 45.2835 24.4201 45.1067C24.5826 44.9235 24.7298 44.7273 24.8601 44.52C25.2224 44.0851 25.4209 43.5369 25.4209 42.9708C25.4209 42.4047 25.2224 41.8566 24.8601 41.4217C24.616 41.1553 24.3236 40.9375 23.9984 40.78C22.5989 40.3812 21.1436 40.214 19.6901 40.285L15.4734 40.6333C13.8967 40.8167 12.3201 41.11 10.7251 41.3117L8.7084 41.5317ZM9.79007 43.365L10.1934 42.595L15.6934 42.32H19.8367C20.7919 42.2878 21.7471 42.3803 22.6784 42.595C22.8826 42.637 23.0723 42.7318 23.2284 42.87C23.18 43.013 23.1121 43.1487 23.0267 43.2733L22.6234 43.75L21.6151 44.355C20.307 44.941 18.9028 45.2827 17.4717 45.3633C15.9281 45.4945 14.3759 45.4883 12.8334 45.345C11.8197 45.3722 10.816 45.1386 9.9184 44.6667C9.62507 44.4283 9.55173 44.025 9.79007 43.4017V43.365Z" fill="#FF6200"/>
<path d="M24.42 39.35C24.75 37.5167 24.53 37.5167 24.2184 37.3333C23.9067 37.15 23.485 37.4983 22.385 39.075C22.3494 39.1581 22.3065 39.2379 22.2567 39.3133C22.2567 39.9 24.09 40.505 24.365 39.9L24.42 39.35Z" fill="#FF6200"/>
<path d="M28.5267 19.8433C28.0807 18.4576 27.3071 17.1999 26.2717 16.1767C25.2766 15.1935 24.1395 14.3654 22.8984 13.72C20.9077 12.7123 18.7296 12.1284 16.5017 12.0053C14.2738 11.8823 12.0447 12.2227 9.95505 13.005C7.80678 13.7282 5.84567 14.9189 4.21301 16.4913C2.58035 18.0638 1.3168 19.9787 0.513387 22.0983C-0.136787 24.1878 -0.136787 26.4255 0.513387 28.515C1.13132 30.5336 2.15438 32.4051 3.52005 34.015C4.34505 34.9867 5.35339 35.8483 6.19672 36.7283C6.5557 37.0875 6.88666 37.4736 7.18672 37.8833C7.67614 38.5298 8.08838 39.2312 8.41505 39.9733C8.41505 40.12 8.52505 40.285 8.59839 40.45C8.74505 41.11 9.93672 40.8717 9.95505 40.3583C9.97339 39.845 9.75339 39.7533 9.62505 39.46C9.288 38.6177 8.86404 37.8127 8.36005 37.0583C8.0521 36.5638 7.709 36.092 7.33339 35.6467C6.54505 34.7117 5.62839 33.8133 4.87672 32.8783C3.75881 31.425 2.94795 29.7596 2.49339 27.9833C2.05218 26.2887 2.12881 24.5007 2.71339 22.85C3.41335 21.0486 4.49771 19.4216 5.89088 18.0823C7.28406 16.7429 8.95254 15.7235 10.7801 15.095C12.5952 14.3762 14.5356 14.0271 16.4874 14.068C18.4393 14.1089 20.3633 14.5391 22.1467 15.3333C23.2649 15.877 24.3016 16.5743 25.2267 17.405C26.1205 18.1924 26.8175 19.1781 27.2617 20.2833C27.3202 20.4492 27.4408 20.586 27.5981 20.6646C27.7555 20.7433 27.9372 20.7578 28.1051 20.705C28.1908 20.6783 28.2702 20.6343 28.3383 20.5759C28.4065 20.5174 28.462 20.4457 28.5015 20.365C28.541 20.2843 28.5636 20.1965 28.5679 20.1068C28.5722 20.0171 28.5582 19.9274 28.5267 19.8433Z" fill="#FF6200"/>
</g>
<defs>
<clipPath id="clip0_10435_673">
<rect width="44" height="44" fill="white" transform="translate(0 8)"/>
</clipPath>
</defs>
</svg>
