<svg width="50" height="51" viewBox="0 0 50 51" fill="none" xmlns="http://www.w3.org/2000/svg">
<rect x="6" y="0.910645" width="44" height="44.6122" rx="15" fill="#15B000" fill-opacity="0.16"/>
<g clip-path="url(#clip0_10435_692)">
<path fill-rule="evenodd" clip-rule="evenodd" d="M13.2184 40.385C13.2947 40.2596 13.3228 40.1107 13.2974 39.9661C13.2721 39.8215 13.195 39.6911 13.0806 39.5991C12.9662 39.5071 12.8222 39.4599 12.6756 39.4662C12.5289 39.4725 12.3895 39.5319 12.2834 39.6333C11.8206 40.2677 11.2247 40.7933 10.5375 41.1733C9.85036 41.5533 9.08844 41.7786 8.30509 41.8333C7.5717 41.8237 6.84918 41.6548 6.18757 41.3382C5.52595 41.0216 4.94106 40.565 4.47342 40C4.03148 39.2711 3.76499 38.4495 3.695 37.6C3.625 36.7505 3.75341 35.8964 4.07009 35.105C4.33115 34.3016 4.83788 33.6004 5.51878 33.1005C6.19968 32.6005 7.02038 32.3269 7.86509 32.3183C8.62573 32.2957 9.38401 32.4138 10.1018 32.6667C10.7938 32.9228 11.4201 33.3299 11.9351 33.8583C11.9772 33.9173 12.0306 33.9674 12.0921 34.0058C12.1536 34.0442 12.222 34.0701 12.2935 34.082C12.365 34.0939 12.4382 34.0916 12.5088 34.0752C12.5794 34.0589 12.6461 34.0288 12.7051 33.9867C12.7641 33.9445 12.8142 33.8912 12.8526 33.8297C12.8909 33.7682 12.9168 33.6997 12.9287 33.6282C12.9406 33.5567 12.9384 33.4836 12.922 33.413C12.9057 33.3424 12.8756 33.2756 12.8334 33.2167C12.2399 32.497 11.4866 31.9257 10.6334 31.5483C9.77346 31.1472 8.84799 30.9049 7.90175 30.8333C6.687 30.7441 5.47633 31.0539 4.4538 31.7158C3.43127 32.3776 2.6528 33.3552 2.23676 34.5C1.78217 35.5909 1.60293 36.7769 1.71483 37.9535C1.82673 39.13 2.22633 40.261 2.87842 41.2467C3.11248 41.4781 3.37784 41.6756 3.66676 41.8333C3.12268 42.1942 2.61871 42.6121 2.16342 43.08C1.82929 43.4544 1.5401 43.8667 1.30176 44.3083C1.0597 44.7414 0.857217 45.1955 0.696756 45.665C0.334755 46.7398 0.100915 47.8537 8.90233e-05 48.9833C-0.0274637 49.1361 0.00474493 49.2936 0.0900533 49.4232C0.175362 49.5529 0.307243 49.6448 0.458422 49.68C0.53957 49.6986 0.623753 49.6998 0.705376 49.6833C0.786998 49.6669 0.864191 49.6333 0.931824 49.5848C0.999456 49.5362 1.05598 49.4738 1.09763 49.4017C1.13929 49.3296 1.16513 49.2495 1.17342 49.1667C1.48767 48.2013 1.88008 47.2632 2.34676 46.3617L2.95176 45.2617C3.15342 44.9133 3.37342 44.565 3.59342 44.2167C3.97308 43.6451 4.38311 43.0943 4.82176 42.5667C5.94564 43.1644 7.22229 43.4134 8.48842 43.2817C9.43709 43.1616 10.3494 42.8413 11.1649 42.3419C11.9803 41.8425 12.6803 41.1754 13.2184 40.385Z" fill="#15B000"/>
<path fill-rule="evenodd" clip-rule="evenodd" d="M43.395 45.665C43.2346 45.1955 43.0321 44.7414 42.79 44.3083C42.5517 43.8667 42.2625 43.4544 41.9284 43.08C41.4731 42.6121 40.9691 42.1942 40.425 41.8333C40.6863 41.6462 40.9207 41.4241 41.1217 41.1733C41.7615 40.1963 42.1542 39.0784 42.266 37.9158C42.3778 36.7533 42.2053 35.581 41.7634 34.5C41.3473 33.3552 40.5689 32.3776 39.5463 31.7158C38.5238 31.0539 37.3131 30.7441 36.0984 30.8333C35.1742 30.894 34.2681 31.1175 33.4217 31.4933C32.5685 31.8707 31.8152 32.442 31.2217 33.1617C31.1293 33.2638 31.0813 33.3984 31.0882 33.5359C31.095 33.6734 31.1563 33.8026 31.2584 33.895C31.3605 33.9874 31.4951 34.0354 31.6326 34.0285C31.7702 34.0217 31.8993 33.9604 31.9917 33.8583C32.5067 33.3299 33.133 32.9228 33.825 32.6667C34.5439 32.42 35.3022 32.3082 36.0617 32.3367C36.9064 32.3452 37.7271 32.6188 38.408 33.1188C39.0889 33.6188 39.5956 34.3199 39.8567 35.1233C40.1813 35.9066 40.3204 36.7544 40.2632 37.6003C40.2059 38.4463 39.9539 39.2676 39.5267 40C39.0454 40.5383 38.4544 40.9673 37.7935 41.2582C37.1326 41.5491 36.4171 41.6952 35.695 41.6867C34.9235 41.6495 34.169 41.4469 33.4826 41.0926C32.7962 40.7383 32.194 40.2407 31.7167 39.6333C31.6106 39.5319 31.4712 39.4725 31.3246 39.4662C31.1779 39.4599 31.0339 39.5071 30.9195 39.5991C30.8051 39.6911 30.7281 39.8215 30.7027 39.9661C30.6773 40.1107 30.7054 40.2596 30.7817 40.385C31.3259 41.1931 32.0387 41.8737 32.8711 42.3801C33.7034 42.8864 34.6355 43.2065 35.6034 43.3183C36.8392 43.4317 38.0813 43.1833 39.1784 42.6033C39.617 43.131 40.027 43.6818 40.4067 44.2533C40.6267 44.6017 40.8467 44.95 41.0484 45.2983L41.6534 46.3983C42.1182 47.2881 42.5106 48.2139 42.8267 49.1667C42.8399 49.2443 42.8685 49.3186 42.911 49.3849C42.9534 49.4513 43.0088 49.5084 43.0738 49.5529C43.1389 49.5974 43.2122 49.6283 43.2894 49.6438C43.3666 49.6594 43.4462 49.6592 43.5234 49.6433C43.6707 49.6123 43.8012 49.5275 43.8893 49.4055C43.9775 49.2835 44.0169 49.1329 44 48.9833C43.929 47.8573 43.7259 46.7436 43.395 45.665Z" fill="#15B000"/>
<path fill-rule="evenodd" clip-rule="evenodd" d="M30.2684 41.9433C29.9814 41.418 29.6371 40.9261 29.2418 40.4766C28.6255 39.7796 27.9232 39.1636 27.1518 38.6433C27.9812 37.8452 28.6198 36.8702 29.0197 35.7908C29.4197 34.7115 29.5708 33.5558 29.4618 32.41C29.457 31.4758 29.2682 30.5518 28.9063 29.6906C28.5444 28.8294 28.0164 28.0479 27.3524 27.3908C26.6885 26.7337 25.9016 26.2137 25.0367 25.8607C24.1719 25.5077 23.2459 25.3285 22.3118 25.3333C20.2845 25.2586 18.3097 25.987 16.8164 27.3601C15.3231 28.7332 14.432 30.6402 14.3368 32.6666C14.2883 33.9984 14.6442 35.3137 15.3576 36.4394C16.071 37.5651 17.1084 38.4485 18.3334 38.9733C17.2949 39.5526 16.3129 40.2277 15.4001 40.99C14.5773 41.6907 13.8663 42.5129 13.2918 43.4283C12.7584 44.2046 12.3863 45.0799 12.1973 46.0026C12.0084 46.9253 12.0065 47.8765 12.1918 48.8C12.2137 48.9555 12.2965 49.0961 12.4219 49.1906C12.5474 49.2852 12.7054 49.326 12.8609 49.3041C13.0165 49.2822 13.1571 49.1995 13.2516 49.074C13.3462 48.9485 13.387 48.7905 13.3651 48.635C13.369 47.1256 13.9156 45.668 14.9051 44.5283C15.4551 43.795 16.0968 43.08 16.7384 42.3833C17.7651 41.3016 18.7918 40.275 19.7451 39.45C20.4648 39.6344 21.2026 39.7389 21.9451 39.7616C22.015 39.7666 22.0851 39.7577 22.1515 39.7355C22.218 39.7133 22.2793 39.6782 22.3321 39.6322C22.385 39.5862 22.4282 39.5303 22.4593 39.4675C22.4904 39.4048 22.5088 39.3365 22.5134 39.2666C22.5185 39.1286 22.4697 38.994 22.3773 38.8914C22.2849 38.7887 22.1562 38.7261 22.0184 38.7166C18.0218 38.35 16.1334 35.875 16.0784 33.2166C16.6203 33.502 17.2112 33.6824 17.8201 33.7483C18.1056 33.7936 18.3963 33.7936 18.6818 33.7483C18.9779 33.7056 19.2675 33.6255 19.5434 33.51C20.2501 33.2651 20.8816 32.842 21.3768 32.2816C21.3768 32.2816 21.3768 32.135 21.4684 32.08L22.1651 32.4466C22.7852 32.7368 23.4375 32.9522 24.1084 33.0883C25.3715 33.2911 26.6588 33.2911 27.9218 33.0883C28.0732 34.4398 27.7046 35.7983 26.8908 36.8879C26.077 37.9775 24.879 38.7166 23.5401 38.955C23.3827 38.9734 23.2388 39.0529 23.1394 39.1763C23.04 39.2997 22.993 39.4572 23.0084 39.615C23.0175 39.6922 23.0418 39.767 23.08 39.8347C23.1182 39.9025 23.1695 39.9621 23.231 40.0098C23.2924 40.0576 23.3627 40.0927 23.4378 40.113C23.5129 40.1334 23.5913 40.1385 23.6684 40.1283C24.5433 40.0566 25.3931 39.8004 26.1618 39.3766C26.7775 40.0497 27.3356 40.7734 27.8301 41.54C28.1051 41.9616 28.3801 42.3833 28.6368 42.8233C28.8934 43.2633 29.1318 43.7216 29.3701 44.1983C29.9303 45.3144 30.3845 46.4806 30.7268 47.6816C30.7619 47.8366 30.8566 47.9716 30.9903 48.0573C31.1241 48.1431 31.2863 48.1728 31.4418 48.14C31.5178 48.1247 31.5901 48.0945 31.6543 48.0511C31.7186 48.0077 31.7737 47.952 31.8163 47.8872C31.8589 47.8225 31.8883 47.7499 31.9026 47.6737C31.917 47.5975 31.9162 47.5192 31.9001 47.4433C31.7394 46.1554 31.4381 44.889 31.0018 43.6666C30.8114 43.0706 30.5659 42.4937 30.2684 41.9433ZM19.6901 31.6583H18.8101L17.9301 31.7866C17.3311 31.9524 16.7169 32.0568 16.0968 32.0983C16.3999 30.7361 17.1967 29.5344 18.3334 28.725C18.8413 29.7291 19.5385 30.6256 20.3868 31.365C20.4168 31.3727 20.4484 31.3727 20.4784 31.365C20.231 31.4999 19.9655 31.5986 19.6901 31.6583ZM24.4568 31.2916C23.9288 31.122 23.4141 30.9137 22.9168 30.6683C22.4123 30.4333 21.9279 30.1574 21.4684 29.8433C20.7063 29.3252 20.0159 28.7088 19.4151 28.01C20.3438 27.5936 21.349 27.375 22.3668 27.3683C23.6424 27.3249 24.8887 27.7565 25.8642 28.5796C26.8397 29.4027 27.4749 30.5586 27.6468 31.8233C26.5655 31.7788 25.494 31.6002 24.4568 31.2916Z" fill="#15B000"/>
<path fill-rule="evenodd" clip-rule="evenodd" d="M22.8433 41.9433C22.8433 41.8023 22.7873 41.667 22.6876 41.5673C22.5879 41.4676 22.4527 41.4116 22.3116 41.4116C22.1706 41.4116 22.0354 41.4676 21.9357 41.5673C21.836 41.667 21.78 41.8023 21.78 41.9433C21.615 42.6033 21.4133 43.2083 21.3033 43.8683C21.2758 44.1487 21.2758 44.4312 21.3033 44.7116C21.2851 44.9863 21.2851 45.2619 21.3033 45.5366C21.3033 46.1966 21.56 46.8016 21.6883 47.4616C21.6881 47.5394 21.704 47.6165 21.7348 47.6879C21.7656 47.7594 21.8108 47.8237 21.8675 47.877C21.9242 47.9303 21.9913 47.9714 22.0645 47.9977C22.1378 48.024 22.2157 48.035 22.2933 48.03C22.3719 48.03 22.4497 48.0142 22.5221 47.9836C22.5945 47.953 22.66 47.9081 22.7148 47.8517C22.7695 47.7953 22.8123 47.7284 22.8407 47.6551C22.8691 47.5818 22.8824 47.5035 22.88 47.425C22.88 46.7833 23.1183 46.1783 23.1916 45.5916C23.2099 45.323 23.2099 45.0535 23.1916 44.785C23.2191 44.5106 23.2191 44.2343 23.1916 43.96C23.1366 43.19 22.9533 42.6033 22.8433 41.9433Z" fill="#15B000"/>
<path fill-rule="evenodd" clip-rule="evenodd" d="M25.2451 17.505L23.0268 16.1667C23.0268 16.1667 22.4768 15.7817 22.2568 15.6717C22.0568 15.572 21.8305 15.5378 21.61 15.574C21.3895 15.6102 21.186 15.7149 21.0284 15.8733C20.3318 16.625 19.5984 17.3217 18.8834 18.0367C17.7834 19.1183 16.7018 20.1633 15.5468 21.1533C14.2511 22.2331 12.8986 23.2429 11.4951 24.1783C11.4373 24.2145 11.3872 24.2616 11.3476 24.3171C11.3081 24.3725 11.2798 24.4353 11.2645 24.5017C11.2492 24.5681 11.2471 24.6368 11.2583 24.704C11.2696 24.7712 11.294 24.8356 11.3301 24.8933C11.3662 24.9511 11.4133 25.0012 11.4688 25.0408C11.5243 25.0803 11.587 25.1086 11.6534 25.1239C11.7198 25.1392 11.7886 25.1413 11.8558 25.1301C11.923 25.1188 11.9873 25.0945 12.0451 25.0583C13.9673 24.0162 15.8061 22.8271 17.5451 21.5017C19.0694 20.3651 20.5263 19.1408 21.9084 17.835L24.1818 19.21L33.5318 25.3333C33.666 25.4165 33.8274 25.4439 33.9816 25.4096C34.1357 25.3753 34.2704 25.2822 34.3568 25.15C34.4012 25.0854 34.4322 25.0125 34.448 24.9356C34.4637 24.8588 34.4639 24.7796 34.4486 24.7026C34.4332 24.6257 34.4025 24.5527 34.3584 24.4878C34.3143 24.4229 34.2576 24.3676 34.1918 24.325C31.7534 22.62 29.4984 20.6583 27.1151 18.825C26.4918 18.385 25.8684 18 25.2451 17.505Z" fill="#15B000"/>
<path fill-rule="evenodd" clip-rule="evenodd" d="M10.3402 19.3933C11.5868 18.5866 12.8335 17.7066 14.0068 16.8083C15.8402 15.47 17.6735 14.0766 19.3968 12.7016L21.7985 10.8683L22.0002 10.6666C22.0002 10.6666 22.4952 10.96 22.5868 11.0516C23.2285 11.6566 23.8335 12.2616 24.4202 12.885C24.7135 13.1233 25.0252 13.38 25.3368 13.6C26.5715 14.4705 27.8571 15.2664 29.1868 15.9833C31.1302 17.12 33.1285 18.1283 35.0535 19.21C35.1197 19.2499 35.1931 19.2763 35.2695 19.2878C35.3459 19.2992 35.4238 19.2955 35.4987 19.2767C35.5737 19.258 35.6442 19.2246 35.7062 19.1786C35.7683 19.1325 35.8206 19.0746 35.8602 19.0083C35.9371 18.8708 35.959 18.7092 35.9216 18.5562C35.8842 18.4031 35.7902 18.2699 35.6585 18.1833C33.8252 17.01 31.9002 15.8733 30.0302 14.6266C28.8196 13.8272 27.6565 12.9579 26.5468 12.0233L23.9618 9.54831C23.6534 9.21457 23.3227 8.90219 22.9718 8.61331C22.7498 8.45415 22.4913 8.35329 22.2202 8.31998C21.9866 8.29999 21.752 8.34438 21.5419 8.44831C21.215 8.67937 20.9027 8.9304 20.6068 9.19998L18.2052 11.2166C16.5002 12.72 14.8868 14.3333 13.1818 15.7083C12.0452 16.6983 10.9085 17.5416 9.73518 18.5316C9.66738 18.5662 9.60779 18.615 9.56045 18.6746C9.5131 18.7341 9.47911 18.8032 9.46075 18.8771C9.4424 18.9509 9.44012 19.0279 9.45407 19.1027C9.46802 19.1775 9.49788 19.2485 9.54161 19.3108C9.58535 19.3731 9.64195 19.4253 9.70759 19.4638C9.77323 19.5023 9.84637 19.5263 9.92208 19.5341C9.99779 19.5419 10.0743 19.5334 10.1464 19.5091C10.2186 19.4848 10.2846 19.4453 10.3402 19.3933Z" fill="#15B000"/>
</g>
<defs>
<clipPath id="clip0_10435_692">
<rect width="44" height="44" fill="white" transform="translate(0 7)"/>
</clipPath>
</defs>
</svg>
