<svg width="50" height="52" viewBox="0 0 50 52" fill="none" xmlns="http://www.w3.org/2000/svg">
<rect x="6" y="0.896484" width="44" height="44.6122" rx="15" fill="#0066FF" fill-opacity="0.16"/>
<g clip-path="url(#clip0_10435_622)">
<path fill-rule="evenodd" clip-rule="evenodd" d="M27.0967 28.6615C27.1716 28.6524 27.2439 28.6286 27.3095 28.5913C27.3751 28.554 27.4326 28.5041 27.4786 28.4443C27.5247 28.3846 27.5584 28.3163 27.5778 28.2434C27.5972 28.1705 27.6019 28.0945 27.5917 28.0198C27.5865 27.1633 27.8423 26.3256 28.325 25.6181C28.7835 24.9287 29.2986 24.2787 29.865 23.6748C30.6882 22.7227 31.5635 21.8169 32.4867 20.9615C33.0473 21.0856 33.6179 21.1592 34.1917 21.1815C34.3089 21.159 34.4147 21.0964 34.4907 21.0043C34.5668 20.9123 34.6084 20.7967 34.6084 20.6773C34.6084 20.5579 34.5668 20.4422 34.4907 20.3502C34.4147 20.2582 34.3089 20.1956 34.1917 20.1731C30.9283 19.8431 29.4983 17.7165 29.6817 15.6081C29.8245 14.4469 30.413 13.3866 31.3229 12.6511C32.2328 11.9157 33.393 11.5626 34.5583 11.6665C35.6096 11.6463 36.6273 12.0374 37.3944 12.7566C38.1615 13.4757 38.6174 14.466 38.665 15.5165C38.7716 16.0558 38.7708 16.6109 38.6626 17.1499C38.5544 17.689 38.3409 18.2014 38.0344 18.6578C37.7278 19.1142 37.3343 19.5056 36.8762 19.8097C36.4182 20.1138 35.9046 20.3245 35.365 20.4298C35.2143 20.4492 35.0774 20.5278 34.9846 20.6481C34.8918 20.7684 34.8506 20.9207 34.87 21.0715C34.8895 21.2222 34.968 21.359 35.0883 21.4518C35.2087 21.5447 35.3609 21.5859 35.5117 21.5665C36.1515 21.5099 36.7742 21.3293 37.345 21.0348C37.7991 21.5436 38.21 22.0894 38.5733 22.6665C38.7933 22.9965 38.995 23.3265 39.1783 23.6565C39.38 24.0048 39.5817 24.3531 39.765 24.7015C40.2101 25.568 40.5841 26.4693 40.8833 27.3965C40.8964 27.4694 40.9241 27.5389 40.9647 27.6009C41.0053 27.6628 41.058 27.7159 41.1196 27.757C41.1813 27.7981 41.2506 27.8263 41.3234 27.84C41.3962 27.8536 41.471 27.8524 41.5433 27.8365C41.6916 27.8097 41.8232 27.7251 41.9091 27.6013C41.9951 27.4776 42.0284 27.3248 42.0017 27.1765C41.9412 26.1001 41.7503 25.0351 41.4333 24.0048C41.3037 23.5412 41.1255 23.0926 40.9017 22.6665C40.6599 22.2485 40.3774 21.8555 40.0583 21.4931C39.5912 21.0214 39.0678 20.6088 38.5 20.2648C39.1477 19.6269 39.6475 18.8546 39.9643 18.0025C40.281 17.1504 40.407 16.2392 40.3333 15.3331C40.3262 14.5764 40.1694 13.8286 39.8721 13.1327C39.5748 12.4368 39.1427 11.8066 38.6009 11.2784C38.059 10.7502 37.418 10.3343 36.7148 10.0548C36.0115 9.77532 35.26 9.63767 34.5033 9.64979C32.8822 9.59944 31.3056 10.1848 30.1102 11.2809C28.9147 12.377 28.1951 13.8971 28.105 15.5165C28.0752 16.5529 28.3492 17.5755 28.8932 18.4582C29.4372 19.341 30.2274 20.0454 31.1667 20.4848C30.3861 20.8917 29.649 21.377 28.9667 21.9331C28.3155 22.4858 27.7528 23.135 27.2983 23.8581C26.8753 24.4827 26.5826 25.1861 26.4377 25.9264C26.2928 26.6666 26.2987 27.4285 26.455 28.1665C26.4615 28.2424 26.4837 28.3161 26.5202 28.383C26.5567 28.4499 26.6067 28.5084 26.667 28.555C26.7274 28.6015 26.7967 28.635 26.8707 28.6533C26.9446 28.6717 27.0216 28.6744 27.0967 28.6615Z" fill="#0066FF"/>
<path fill-rule="evenodd" clip-rule="evenodd" d="M15.4366 44.3181C15.2171 43.9096 14.9592 43.5229 14.6666 43.1631C14.206 42.6685 13.6821 42.237 13.1083 41.8798C13.752 41.2467 14.2497 40.4806 14.5663 39.635C14.883 38.7895 15.0111 37.885 14.9416 36.9848C14.9396 36.2195 14.784 35.4624 14.484 34.7583C14.1841 34.0542 13.7459 33.4175 13.1954 32.8858C12.6449 32.3542 11.9934 31.9384 11.2793 31.6631C10.5652 31.3878 9.80319 31.2586 9.03829 31.2831C7.41765 31.2231 5.8384 31.8027 4.64136 32.8969C3.44431 33.991 2.72547 35.5119 2.63996 37.1314C2.60861 38.1659 2.87987 39.1871 3.42046 40.0696C3.96106 40.9521 4.74749 41.6577 5.68329 42.0998C4.90274 42.5067 4.16561 42.992 3.48329 43.5481C2.83862 44.1022 2.28222 44.7513 1.83329 45.4731C1.40785 46.1 1.1138 46.8065 0.968858 47.5501C0.823917 48.2937 0.831094 49.059 0.989956 49.7998C0.998795 49.8741 1.0227 49.9458 1.06022 50.0105C1.09773 50.0753 1.14806 50.1317 1.20813 50.1763C1.26819 50.2209 1.33673 50.2528 1.40955 50.27C1.48237 50.2873 1.55793 50.2894 1.63162 50.2764C1.70651 50.2674 1.77885 50.2436 1.84443 50.2063C1.91001 50.169 1.96751 50.1191 2.01358 50.0593C2.05966 49.9996 2.09338 49.9313 2.11279 49.8584C2.13219 49.7855 2.1369 49.7095 2.12662 49.6348C2.12149 48.7783 2.37728 47.9406 2.85996 47.2331C3.31842 46.5437 3.83354 45.8937 4.39996 45.2898C5.22789 44.342 6.10288 43.4364 7.02162 42.5764C7.57897 42.7184 8.15148 42.7923 8.72662 42.7964C8.84388 42.774 8.94964 42.7113 9.0257 42.6193C9.10177 42.5273 9.14338 42.4117 9.14338 42.2923C9.14338 42.1729 9.10177 42.0572 9.0257 41.9652C8.94964 41.8732 8.84388 41.8106 8.72662 41.7881C5.49996 41.4581 4.10662 39.3314 4.28996 37.2231C4.41513 36.0486 4.99609 34.97 5.90798 34.2192C6.81987 33.4685 7.98991 33.1054 9.16662 33.2081C10.2175 33.2077 11.2271 33.6175 11.9804 34.3503C12.7337 35.0831 13.1713 36.0809 13.2 37.1314C13.4158 38.2181 13.1913 39.346 12.576 40.2673C11.9607 41.1886 11.0047 41.8279 9.91829 42.0448C9.84365 42.0532 9.77141 42.0762 9.70568 42.1126C9.63995 42.1489 9.58203 42.1979 9.53521 42.2566C9.48839 42.3153 9.4536 42.3827 9.43283 42.4549C9.41205 42.5271 9.40569 42.6026 9.41412 42.6773C9.42255 42.7519 9.44559 42.8241 9.48194 42.8899C9.51829 42.9556 9.56722 43.0135 9.62596 43.0603C9.68469 43.1072 9.75207 43.142 9.82425 43.1627C9.89642 43.1835 9.97199 43.1899 10.0466 43.1814C10.6864 43.1248 11.3091 42.9443 11.88 42.6498C12.3341 43.1586 12.7449 43.7043 13.1083 44.2814C13.3273 44.6068 13.5293 44.9434 13.7133 45.2898C13.915 45.6198 14.1166 45.9681 14.3 46.3164C14.745 47.183 15.119 48.0843 15.4183 49.0114C15.4726 49.1264 15.5639 49.2198 15.6776 49.2767C15.7913 49.3336 15.9208 49.3508 16.0454 49.3254C16.1699 49.3001 16.2824 49.2337 16.3648 49.1369C16.4473 49.0401 16.4948 48.9185 16.5 48.7914C16.4395 47.7151 16.2486 46.6501 15.9316 45.6198C15.8083 45.1712 15.6425 44.7353 15.4366 44.3181Z" fill="#0066FF"/>
<path fill-rule="evenodd" clip-rule="evenodd" d="M3.28164 26.8281C5.45858 28.3868 8.08518 29.1915 10.7616 29.1198C14.5226 29.0116 18.2745 28.6934 22 28.1665C22.0683 28.1643 22.1355 28.1481 22.1973 28.1187C22.259 28.0894 22.314 28.0476 22.3588 27.9959C22.4036 27.9442 22.4372 27.8838 22.4575 27.8185C22.4777 27.7532 22.4843 27.6844 22.4766 27.6165C22.472 27.5514 22.4545 27.4879 22.4253 27.4296C22.396 27.3713 22.3555 27.3193 22.3061 27.2767C22.2567 27.2342 22.1994 27.2017 22.1374 27.1814C22.0754 27.161 22.01 27.1531 21.945 27.1581C18.2923 27.567 14.6204 27.7812 10.945 27.7998C8.61205 27.7866 6.34682 27.0144 4.49164 25.5998C3.60699 24.7502 2.91262 23.7227 2.45438 22.585C1.99614 21.4473 1.78446 20.2253 1.83331 18.9998C1.71556 16.5568 2.51307 14.1577 4.06997 12.2715C5.15694 11.1942 6.59491 10.5435 8.12164 10.4381C9.72278 10.2523 11.3448 10.4795 12.8333 11.0981C13.5686 11.4004 14.2297 11.8585 14.7709 12.4409C15.3121 13.0232 15.7206 13.716 15.9683 14.4715C16.8483 17.0015 16.6283 20.0631 17.655 22.5198C18.0789 23.5187 18.7548 24.3904 19.6166 25.0498C20.8142 25.9589 22.1197 26.7163 23.5033 27.3048C23.5706 27.3393 23.644 27.36 23.7194 27.3657C23.7948 27.3714 23.8705 27.3621 23.9422 27.3382C24.0139 27.3143 24.0801 27.2763 24.137 27.2265C24.1938 27.1767 24.2402 27.1161 24.2733 27.0481C24.3186 26.9175 24.3179 26.7754 24.2712 26.6453C24.2245 26.5152 24.1347 26.4051 24.0166 26.3331C22.7113 25.7482 21.4804 25.0097 20.35 24.1331C19.6812 23.5847 19.1584 22.8793 18.8283 22.0798C17.7833 18.9998 18.3333 15.3331 16.885 12.5648C16.1294 11.1887 14.9356 10.1046 13.4933 9.48479C11.7647 8.72658 9.87434 8.41152 7.99331 8.56812C5.99019 8.69644 4.09853 9.53501 2.65831 10.9331C0.792758 13.1939 -0.155955 16.0728 -2.7135e-05 18.9998C-0.0334311 20.4619 0.241532 21.9147 0.806955 23.2635C1.37238 24.6123 2.21558 25.8269 3.28164 26.8281Z" fill="#0066FF"/>
<path fill-rule="evenodd" clip-rule="evenodd" d="M41.3417 33.2998C39.9258 31.8986 38.0499 31.0583 36.0617 30.9348C34.1803 30.7687 32.2875 31.0841 30.5617 31.8515C29.1175 32.4593 27.9219 33.5385 27.17 34.9131C25.6483 37.6998 26.2717 41.4215 25.1533 44.3915C24.8178 45.2181 24.2748 45.9443 23.5767 46.4998C22.4468 47.3822 21.2159 48.1268 19.91 48.7181C19.7762 48.7887 19.6749 48.9081 19.627 49.0516C19.5792 49.1951 19.5886 49.3514 19.6533 49.4881C19.7271 49.6187 19.8466 49.7173 19.9889 49.7647C20.1312 49.8122 20.286 49.8051 20.4233 49.7448C21.804 49.1429 23.1086 48.3798 24.31 47.4715C25.167 46.8148 25.8422 45.9503 26.2717 44.9598C27.2983 42.4848 27.0783 39.4598 27.9583 36.8931C28.2046 36.1169 28.6202 35.4051 29.175 34.8091C29.7298 34.213 30.4101 33.7476 31.1667 33.4465C32.64 32.8434 34.2418 32.6227 35.8233 32.8048C37.3501 32.9102 38.788 33.5609 39.875 34.6381C41.4415 36.5078 42.2581 38.8924 42.1667 41.3298C42.2304 42.5312 42.0451 43.7327 41.6224 44.859C41.1996 45.9854 40.5485 47.0121 39.71 47.8748C37.8531 49.284 35.5877 50.0499 33.2567 50.0565C29.5807 50.0559 25.9078 49.8417 22.2567 49.4148C22.1824 49.4006 22.106 49.4029 22.0327 49.4217C21.9595 49.4404 21.8913 49.4751 21.833 49.5233C21.7748 49.5715 21.7279 49.6319 21.6957 49.7003C21.6635 49.7687 21.6468 49.8434 21.6468 49.919C21.6468 49.9946 21.6635 50.0692 21.6957 50.1376C21.7279 50.206 21.7748 50.2665 21.833 50.3146C21.8913 50.3628 21.9595 50.3975 22.0327 50.4162C22.106 50.435 22.1824 50.4374 22.2567 50.4231C25.9622 50.9787 29.6957 51.3275 33.44 51.4681C36.1165 51.5399 38.7431 50.7352 40.92 49.1765C41.9473 48.1597 42.7517 46.9402 43.2819 45.5956C43.8122 44.251 44.0568 42.8107 44 41.3665C44.1632 38.4385 43.2136 35.5571 41.3417 33.2998Z" fill="#0066FF"/>
<path fill-rule="evenodd" clip-rule="evenodd" d="M8.21326 16.4881H9.16659H10.1199H12.4116C12.5648 16.5125 12.7213 16.4749 12.8468 16.3838C12.9723 16.2927 13.0564 16.1555 13.0808 16.0023C13.1051 15.8491 13.0675 15.6926 12.9764 15.5671C12.8853 15.4416 12.7481 15.3575 12.5949 15.3331C11.8249 15.0948 11.0733 14.8565 10.2849 14.6915C9.94681 14.6206 9.60343 14.5776 9.25826 14.5631C8.91047 14.5357 8.56105 14.5357 8.21326 14.5631C7.40213 14.6741 6.60385 14.8645 5.82993 15.1315C5.76273 15.1498 5.70016 15.1821 5.6463 15.2262C5.59243 15.2704 5.54849 15.3254 5.51735 15.3877C5.4862 15.45 5.46855 15.5181 5.46555 15.5877C5.46255 15.6573 5.47426 15.7267 5.49993 15.7915C5.51821 15.9246 5.58797 16.0453 5.69424 16.1275C5.8005 16.2098 5.93479 16.2471 6.06826 16.2315C6.74659 16.2498 7.46159 16.4148 8.21326 16.4881Z" fill="#0066FF"/>
<path fill-rule="evenodd" clip-rule="evenodd" d="M31.5882 38.8914H33.8799H34.8332H35.7865C36.5382 38.8914 37.2532 38.6531 38.0415 38.6164C38.1124 38.6359 38.1867 38.6399 38.2593 38.6281C38.3318 38.6164 38.401 38.5892 38.4622 38.5484C38.5233 38.5076 38.575 38.4542 38.6137 38.3917C38.6524 38.3292 38.6773 38.2591 38.6865 38.1862C38.6958 38.1133 38.6893 38.0392 38.6675 37.969C38.6457 37.8988 38.609 37.8341 38.5601 37.7793C38.5111 37.7245 38.4509 37.6808 38.3836 37.6513C38.3163 37.6218 38.2434 37.607 38.1699 37.6081C37.3966 37.339 36.5981 37.1486 35.7865 37.0398C35.4388 37.0123 35.0893 37.0123 34.7415 37.0398C34.3973 37.0645 34.0546 37.1073 33.7149 37.1681C32.9327 37.3431 32.1614 37.5635 31.4049 37.8281C31.2555 37.8551 31.1223 37.9389 31.0334 38.062C30.9445 38.185 30.9068 38.3378 30.9282 38.4881C30.967 38.6262 31.0566 38.7446 31.179 38.8194C31.3014 38.8942 31.4476 38.9199 31.5882 38.8914Z" fill="#0066FF"/>
<path fill-rule="evenodd" clip-rule="evenodd" d="M5.02329 21.5664C5.0383 21.6306 5.06597 21.6911 5.10468 21.7444C5.14339 21.7977 5.19235 21.8428 5.2487 21.877C5.30505 21.9111 5.36765 21.9337 5.43283 21.9433C5.49801 21.9529 5.56446 21.9495 5.62829 21.9331H8.21329H9.31329L10.4133 21.8231L13.035 21.4931C13.1096 21.4955 13.184 21.4833 13.2539 21.4569C13.3238 21.4306 13.3878 21.3908 13.4423 21.3397C13.4968 21.2886 13.5406 21.2273 13.5714 21.1592C13.6022 21.0912 13.6192 21.0177 13.6216 20.9431C13.6241 20.8685 13.6118 20.7941 13.5855 20.7242C13.5591 20.6543 13.5193 20.5903 13.4682 20.5358C13.4171 20.4813 13.3558 20.4374 13.2878 20.4066C13.2197 20.3759 13.1463 20.3588 13.0716 20.3564C12.18 20.193 11.2805 20.0767 10.3766 20.0081C9.98599 19.9806 9.59391 19.9806 9.20329 20.0081C8.81446 20.0196 8.42766 20.0687 8.04829 20.1548C7.17484 20.3409 6.32142 20.6111 5.49995 20.9614C5.42721 20.9654 5.35615 20.9849 5.2915 21.0185C5.22685 21.0521 5.1701 21.0991 5.12501 21.1563C5.07992 21.2135 5.04753 21.2797 5.02999 21.3504C5.01245 21.4211 5.01016 21.4948 5.02329 21.5664Z" fill="#0066FF"/>
<path fill-rule="evenodd" clip-rule="evenodd" d="M30.3783 43.2731C30.3806 43.3494 30.3983 43.4244 30.4302 43.4937C30.4621 43.563 30.5077 43.6252 30.5641 43.6765C30.6206 43.7279 30.6868 43.7673 30.7588 43.7925C30.8308 43.8177 30.9072 43.8281 30.9833 43.8231L33.5867 44.1531L34.6867 44.2631H35.7867H38.3717C38.5028 44.2906 38.6395 44.2657 38.7525 44.1938C38.8656 44.1219 38.946 44.0086 38.9767 43.8781C38.993 43.8143 38.9965 43.7479 38.9869 43.6827C38.9772 43.6175 38.9547 43.5549 38.9205 43.4986C38.8864 43.4422 38.8413 43.3932 38.788 43.3545C38.7347 43.3158 38.6742 43.2882 38.61 43.2731C37.7604 42.9045 36.876 42.622 35.97 42.4298C35.585 42.4298 35.2 42.3198 34.7967 42.2831C34.3933 42.2465 34.0267 42.2831 33.6417 42.2831C32.7377 42.3506 31.8381 42.4669 30.9467 42.6315C30.8663 42.6336 30.7873 42.6523 30.7144 42.6862C30.6416 42.7202 30.5765 42.7688 30.5232 42.8289C30.4699 42.8891 30.4296 42.9596 30.4047 43.036C30.3797 43.1124 30.3708 43.1931 30.3783 43.2731Z" fill="#0066FF"/>
</g>
<defs>
<clipPath id="clip0_10435_622">
<rect width="44" height="44" fill="white" transform="translate(0 7.99976)"/>
</clipPath>
</defs>
</svg>
