<svg width="50" height="52" viewBox="0 0 50 52" fill="none" xmlns="http://www.w3.org/2000/svg">
<g clip-path="url(#clip0_10435_567)">
<path d="M7.20499 15.1684C7.57365 15.1506 7.92246 14.9961 8.18344 14.7352C8.44442 14.4742 8.59886 14.1254 8.61666 13.7567C8.59311 13.3612 8.41802 12.9899 8.12779 12.7202C7.83755 12.4505 7.45452 12.303 7.05833 12.3084C6.86706 12.3198 6.68006 12.3696 6.50841 12.4548C6.33677 12.54 6.18399 12.6588 6.05915 12.8041C5.93432 12.9495 5.83996 13.1184 5.7817 13.301C5.72344 13.4835 5.70245 13.6759 5.71999 13.8667C5.73164 14.0498 5.77934 14.2288 5.86036 14.3935C5.94137 14.5581 6.0541 14.7051 6.19208 14.826C6.33006 14.947 6.49057 15.0395 6.66439 15.0982C6.83822 15.157 7.02193 15.1808 7.20499 15.1684Z" fill="#6308FD"/>
<path d="M14.3 13.7567C14.2778 13.3767 14.1156 13.0184 13.8447 12.751C13.5739 12.4835 13.2136 12.3258 12.8334 12.3083C12.6421 12.3198 12.4551 12.3696 12.2834 12.4548C12.1118 12.54 11.959 12.6587 11.8342 12.8041C11.7093 12.9495 11.615 13.1184 11.5567 13.301C11.4985 13.4835 11.4775 13.6759 11.495 13.8667C11.5175 14.2108 11.6667 14.5344 11.9139 14.7748C12.1611 15.0152 12.4887 15.1555 12.8334 15.1683C13.2103 15.1598 13.5703 15.01 13.842 14.7485C14.1136 14.4871 14.2771 14.133 14.3 13.7567Z" fill="#6308FD"/>
<path d="M19.7451 13.7567C19.7307 13.3611 19.5609 12.9872 19.2726 12.7161C18.9843 12.4449 18.6007 12.2984 18.2051 12.3083C18.0138 12.3198 17.8268 12.3696 17.6551 12.4548C17.4835 12.5399 17.3307 12.6587 17.2059 12.8041C17.081 12.9494 16.9867 13.1184 16.9284 13.3009C16.8702 13.4835 16.8492 13.6759 16.8667 13.8667C16.8903 14.2331 17.0577 14.5754 17.3323 14.8192C17.607 15.0629 17.9667 15.1884 18.3334 15.1683C18.702 15.1505 19.0509 14.9961 19.3118 14.7351C19.5728 14.4741 19.7273 14.1253 19.7451 13.7567Z" fill="#6308FD"/>
<path d="M41.1034 17.1667C39.8934 17.1667 38.665 17.1667 37.4367 17.0567C34.5584 16.8733 31.6984 16.5433 28.8384 16.36C26.3084 16.2133 23.76 16.1033 21.1934 16.1217C18.6267 16.14 16.115 16.25 13.585 16.3783C11.055 16.5067 8.34171 16.6717 5.73837 17.1667C4.56512 17.3649 3.40255 17.6219 2.25504 17.9367C2.2957 15.9848 2.46104 14.0375 2.75004 12.1067C2.77759 11.9539 2.74538 11.7964 2.66007 11.6668C2.57477 11.5371 2.44288 11.4452 2.2917 11.41C2.13896 11.3824 1.98146 11.4147 1.85179 11.5C1.72212 11.5853 1.6302 11.7172 1.59504 11.8683C0.754527 16.3625 0.288483 20.9187 0.201705 25.49C0.201705 27.3233 0.0550382 29.3767 0.0183715 31.3383C-0.0182952 33.3 0.0183715 35.28 0.0183715 37.1683C0.0729926 41.2674 0.33611 45.361 0.806705 49.4333C0.824323 50.0041 0.974991 50.5628 1.2467 51.065C1.2945 51.1138 1.35155 51.1525 1.41451 51.179C1.47747 51.2055 1.54508 51.2191 1.61337 51.2191C1.68167 51.2191 1.74927 51.2055 1.81223 51.179C1.87519 51.1525 1.93224 51.1138 1.98004 51.065C2.05586 50.9682 2.09706 50.8488 2.09706 50.7258C2.09706 50.6029 2.05586 50.4835 1.98004 50.3867C1.7967 50.3867 1.87004 49.8367 1.83337 49.305C1.66837 47.1233 1.83337 42.485 1.83337 37.15C1.83337 34.5467 1.83337 31.76 1.94337 29.01V23.51C1.94337 21.6767 1.94337 20.375 2.05337 18.945C3.26255 18.6667 4.48682 18.4586 5.72004 18.3217C8.30504 18.0467 10.9267 18.01 13.4567 17.9917C15.9867 17.9733 18.4984 17.9917 21.0284 17.9917H28.5817C31.4417 17.9917 34.32 18.23 37.1984 18.2667H40.865C40.9412 18.2667 41.0167 18.2514 41.0868 18.2217C41.157 18.192 41.2205 18.1485 41.2735 18.0938C41.3266 18.039 41.368 17.9742 41.3955 17.9031C41.4229 17.832 41.4358 17.7562 41.4334 17.68C41.4307 17.5724 41.3986 17.4676 41.3404 17.377C41.2822 17.2865 41.2002 17.2137 41.1034 17.1667Z" fill="#6308FD"/>
<path d="M44 40.4133C44 31.1 43.6333 19.3667 43.7067 17.5883C43.7869 16.3631 43.7254 15.1328 43.5233 13.9217C43.3546 13.0266 43.0121 12.1733 42.515 11.41C41.7465 10.4344 40.6417 9.78065 39.4167 9.57667C37.0559 9.23329 34.6695 9.09833 32.285 9.17334C29.3333 9.02667 26.3267 8.88001 23.3567 8.82501C20.3867 8.77001 17.4167 8.75167 14.4283 8.84334C12.0554 8.8447 9.68514 9.00394 7.33333 9.32001C5.75236 9.5271 4.20153 9.92097 2.71333 10.4933C2.58268 10.5428 2.47675 10.6417 2.41843 10.7686C2.36011 10.8955 2.35408 11.0403 2.40167 11.1717C2.42591 11.2363 2.46292 11.2953 2.51048 11.3453C2.55805 11.3952 2.6152 11.4351 2.67851 11.4625C2.74183 11.4898 2.81001 11.5042 2.879 11.5046C2.94798 11.505 3.01634 11.4916 3.08 11.465C4.50764 10.9586 5.99112 10.6262 7.49833 10.475C9.78871 10.2492 12.0912 10.1696 14.3917 10.2367C16.775 10.2367 19.14 10.2367 21.4867 10.42C25.0433 10.5667 28.545 10.805 32.12 11.0983C33.5317 11.2083 35.9517 10.9333 38.0233 11.2083C38.5504 11.2131 39.0706 11.3281 39.5505 11.5459C40.0305 11.7638 40.4595 12.0797 40.81 12.4733C41.1691 13.0302 41.4122 13.6537 41.525 14.3067C41.7138 15.3835 41.7753 16.4788 41.7083 17.57C41.7083 19.4033 42.24 31.1183 42.5333 40.4683C42.6617 44.52 42.735 48.1317 42.68 50.24C42.6839 50.393 42.744 50.5393 42.8488 50.6509C42.9536 50.7625 43.0958 50.8316 43.2483 50.845C43.3254 50.8475 43.4022 50.8347 43.4743 50.8074C43.5464 50.7802 43.6124 50.739 43.6686 50.6862C43.7248 50.6334 43.77 50.5701 43.8017 50.4998C43.8334 50.4296 43.851 50.3537 43.8533 50.2767C44 48.1133 44 44.5017 44 40.4133Z" fill="#6308FD"/>
<path d="M28.1784 26.2233H31.4417C31.9001 26.2233 32.3767 26.2233 32.8351 26.1133L34.2101 25.9483C35.3101 25.8017 36.3734 25.6183 37.4367 25.5267C37.5923 25.5267 37.7415 25.4649 37.8516 25.3548C37.9616 25.2448 38.0234 25.0956 38.0234 24.94C38.0234 24.7844 37.9616 24.6352 37.8516 24.5252C37.7415 24.4152 37.5923 24.3533 37.4367 24.3533C36.3173 24.2111 35.1914 24.1254 34.0634 24.0967H32.6334C32.1523 24.1279 31.6743 24.1953 31.2034 24.2983C30.1024 24.5384 29.0184 24.8508 27.9584 25.2333C27.8921 25.2465 27.8291 25.2726 27.773 25.3101C27.7168 25.3477 27.6686 25.3959 27.6311 25.4521C27.5937 25.5083 27.5677 25.5714 27.5546 25.6377C27.5415 25.7039 27.5417 25.7721 27.5551 25.8383C27.5701 25.9049 27.5983 25.9677 27.638 26.0232C27.6776 26.0787 27.7279 26.1258 27.7859 26.1616C27.844 26.1975 27.9086 26.2214 27.9759 26.232C28.0433 26.2426 28.1122 26.2396 28.1784 26.2233Z" fill="#6308FD"/>
<path d="M37.785 40.0833C36.6716 39.9417 35.5519 39.8561 34.43 39.8267H32.9817C32.5005 39.8565 32.0223 39.924 31.5516 40.0283C30.4506 40.2684 29.3666 40.5808 28.3067 40.9633C28.2404 40.9765 28.1774 41.0026 28.1212 41.0401C28.0651 41.0776 28.0169 41.1259 27.9794 41.1821C27.9419 41.2383 27.9159 41.3014 27.9029 41.3676C27.8898 41.4339 27.89 41.5021 27.9033 41.5683C27.9113 41.6371 27.9341 41.7032 27.9702 41.7623C28.0063 41.8213 28.0548 41.8717 28.1124 41.9101C28.17 41.9485 28.2352 41.9739 28.3036 41.9845C28.372 41.9951 28.4418 41.9907 28.5083 41.9717H31.7717C32.2483 41.9717 32.7067 41.9717 33.165 41.8617C33.6233 41.7517 34.0817 41.77 34.54 41.6967C35.64 41.55 36.7033 41.3667 37.7667 41.275C37.924 41.2751 38.0752 41.2138 38.1881 41.1043C38.301 40.9948 38.3669 40.8456 38.3717 40.6883C38.3741 40.6098 38.3607 40.5315 38.3324 40.4582C38.304 40.3849 38.2612 40.318 38.2064 40.2616C38.1517 40.2052 38.0862 40.1603 38.0138 40.1297C37.9414 40.099 37.8636 40.0833 37.785 40.0833Z" fill="#6308FD"/>
<path d="M31.3684 31.1183C31.8267 31.1183 32.2667 31.1183 32.7251 31.0083C33.1834 30.8983 33.6417 30.8983 34.0817 30.825C35.1634 30.66 36.2267 30.4217 37.2901 30.22C37.444 30.2016 37.585 30.1247 37.684 30.0053C37.7829 29.8859 37.8322 29.733 37.8217 29.5783C37.799 29.4228 37.7184 29.2817 37.596 29.1831C37.4736 29.0845 37.3185 29.0358 37.1617 29.0467H33.9167H32.5417C32.0736 29.0856 31.6083 29.1529 31.1484 29.2483C30.0736 29.4895 29.0144 29.7956 27.9767 30.165C27.8418 30.1917 27.7226 30.2697 27.644 30.3825C27.5653 30.4953 27.5335 30.6342 27.5551 30.77C27.5658 30.8374 27.5904 30.9019 27.6273 30.9594C27.6641 31.0169 27.7125 31.0661 27.7693 31.104C27.8261 31.1419 27.8902 31.1676 27.9574 31.1795C28.0247 31.1915 28.0937 31.1894 28.1601 31.1733C29.2234 31.1183 30.3051 31.155 31.3684 31.1183Z" fill="#6308FD"/>
<path d="M37.51 44.8683H34.265H32.8534C32.3915 44.9086 31.9323 44.9759 31.4784 45.07C30.3975 45.311 29.3323 45.6171 28.2884 45.9866C28.2221 46.0011 28.1594 46.0284 28.1038 46.0671C28.0481 46.1058 28.0007 46.1551 27.9641 46.2121C27.9275 46.2691 27.9025 46.3328 27.8905 46.3995C27.8785 46.4662 27.8797 46.5346 27.8942 46.6008C27.9086 46.667 27.936 46.7297 27.9747 46.7854C28.0133 46.841 28.0626 46.8885 28.1196 46.9251C28.1767 46.9617 28.2403 46.9867 28.307 46.9987C28.3737 47.0107 28.4421 47.0094 28.5084 46.995H31.6984C32.1567 46.995 32.5967 46.995 33.055 46.885C33.5134 46.775 33.9717 46.775 34.43 46.7016C35.4934 46.5366 36.5384 46.2983 37.6017 46.0966C37.6789 46.0897 37.7539 46.0676 37.8225 46.0316C37.891 45.9955 37.9518 45.9463 38.0012 45.8866C38.0507 45.8269 38.0878 45.7581 38.1105 45.684C38.1331 45.6099 38.1409 45.5321 38.1334 45.455C38.1364 45.3739 38.122 45.2932 38.0912 45.2182C38.0604 45.1432 38.014 45.0756 37.9549 45.0201C37.8959 44.9645 37.8256 44.9222 37.7489 44.896C37.6722 44.8699 37.5907 44.8604 37.51 44.8683Z" fill="#6308FD"/>
<path d="M6.76499 34.125C6.84119 34.125 6.91662 34.1097 6.9868 34.08C7.05697 34.0503 7.12046 34.0068 7.17348 33.9521C7.2265 33.8974 7.26798 33.8325 7.29544 33.7614C7.3229 33.6904 7.33578 33.6145 7.33332 33.5383C7.44332 32.7683 7.57165 32.0533 7.66332 31.2833C7.6822 30.9658 7.6822 30.6475 7.66332 30.33V29.395C7.66332 28.625 7.47999 27.91 7.42499 27.1583C7.44099 27.0227 7.40423 26.8862 7.32232 26.777C7.24041 26.6678 7.11962 26.5943 6.98499 26.5717C6.9161 26.5614 6.84585 26.5652 6.7785 26.583C6.71116 26.6007 6.64812 26.632 6.59324 26.6749C6.53836 26.7177 6.49278 26.7713 6.45927 26.8324C6.42576 26.8934 6.40502 26.9607 6.39832 27.03C6.12653 27.7687 5.918 28.5293 5.77499 29.3033C5.74769 29.6328 5.74769 29.9639 5.77499 30.2933C5.75675 30.6231 5.75675 30.9536 5.77499 31.2833C5.86665 32.0533 5.99499 32.7867 6.14165 33.5567C6.14128 33.6362 6.15759 33.7148 6.18953 33.7876C6.22146 33.8604 6.26832 33.9257 6.32706 33.9793C6.38581 34.0329 6.45514 34.0735 6.53057 34.0986C6.606 34.1237 6.68586 34.1327 6.76499 34.125Z" fill="#6308FD"/>
<path d="M7.5167 42.98C7.60837 42.2283 7.7367 41.5133 7.8467 40.7433V39.79C7.86503 39.4786 7.86503 39.1664 7.8467 38.855C7.8467 38.085 7.70003 37.3517 7.6817 36.6C7.70263 36.4744 7.67935 36.3455 7.61582 36.2351C7.5523 36.1248 7.45247 36.0399 7.33337 35.995C7.19779 35.979 7.06125 36.0158 6.95203 36.0977C6.84282 36.1796 6.7693 36.3004 6.7467 36.435C6.45938 37.1748 6.22653 37.9346 6.05003 38.7083C6.02206 39.0439 6.02206 39.3811 6.05003 39.7167C6.03186 40.0525 6.03186 40.3891 6.05003 40.725C6.05003 41.5133 6.27003 42.265 6.4167 43.035C6.42616 43.1922 6.49658 43.3396 6.61299 43.4457C6.72939 43.5518 6.88259 43.6084 7.04003 43.6033C7.18243 43.5766 7.30991 43.4982 7.39792 43.3831C7.48593 43.268 7.52824 43.1244 7.5167 42.98Z" fill="#6308FD"/>
<path d="M23.0267 37.6084C23.0267 37.4528 22.9649 37.3036 22.8549 37.1936C22.7448 37.0835 22.5956 37.0217 22.44 37.0217C22.2843 37.0308 22.1376 37.0981 22.029 37.2101C21.9204 37.3221 21.8577 37.4708 21.8534 37.6267C21.7617 38.2867 21.6334 38.9101 21.5784 39.5701V40.3951V41.2201C21.6884 41.8617 21.9084 42.4484 22.0367 43.0534C22.0316 43.1214 22.0407 43.1897 22.0633 43.2541C22.0859 43.3185 22.1216 43.3774 22.1681 43.4274C22.2145 43.4773 22.2708 43.5171 22.3334 43.5442C22.396 43.5713 22.4635 43.5852 22.5317 43.5851C22.6666 43.5854 22.7965 43.5344 22.8953 43.4425C22.994 43.3506 23.0541 43.2246 23.0634 43.0901C23.2329 42.4439 23.3675 41.789 23.4667 41.1284C23.494 40.8479 23.494 40.5655 23.4667 40.2851C23.4634 40.0077 23.4326 39.7314 23.375 39.4601C23.32 38.8551 23.155 38.2501 23.0267 37.6084Z" fill="#6308FD"/>
<path d="M21.5417 27.4517C21.5417 28.1667 21.3584 28.8817 21.3034 29.615V30.5317C21.2853 30.8431 21.2853 31.1553 21.3034 31.4667C21.4428 32.2087 21.6202 32.943 21.8351 33.6667C21.8445 33.8045 21.9072 33.9332 22.0098 34.0256C22.1125 34.118 22.2471 34.1668 22.3851 34.1617C22.4541 34.1594 22.522 34.1432 22.5847 34.114C22.6473 34.0849 22.7034 34.0434 22.7496 33.992C22.7959 33.9407 22.8312 33.8805 22.8537 33.8152C22.8761 33.7498 22.8851 33.6806 22.8801 33.6117C22.8801 32.8784 23.1551 32.1817 23.2284 31.4484V30.5134C23.2555 30.2023 23.2555 29.8894 23.2284 29.5784C23.1277 28.8366 22.9808 28.1018 22.7884 27.3784C22.7838 27.2996 22.7634 27.2226 22.7284 27.1519C22.6934 27.0812 22.6444 27.0183 22.5845 26.9669C22.5246 26.9156 22.455 26.8768 22.3798 26.853C22.3045 26.8292 22.2253 26.8208 22.1467 26.8284C22.0657 26.8283 21.9855 26.8446 21.9109 26.8761C21.8363 26.9076 21.7688 26.9539 21.7123 27.012C21.6559 27.0701 21.6117 27.139 21.5824 27.2145C21.5531 27.2901 21.5393 27.3707 21.5417 27.4517Z" fill="#6308FD"/>
<path d="M20.5883 24.1884L20.9367 24.7751C20.9553 24.84 20.9871 24.9005 21.03 24.9528C21.0729 25.005 21.126 25.0479 21.1861 25.0789C21.2463 25.1098 21.3121 25.128 21.3795 25.1326C21.447 25.1371 21.5146 25.1277 21.5783 25.1051C21.6463 25.094 21.7112 25.0695 21.7695 25.0329C21.8277 24.9962 21.878 24.9483 21.9173 24.8919C21.9567 24.8354 21.9842 24.7717 21.9984 24.7044C22.0127 24.637 22.0132 24.5676 22 24.5001C21.9692 24.1423 21.9141 23.787 21.835 23.4367C21.7699 23.2298 21.6774 23.0325 21.56 22.8501C21.188 22.3482 20.6479 21.9968 20.0383 21.8601C19.6869 21.7949 19.3265 21.7949 18.975 21.8601C18.2417 21.8601 17.5083 22.1351 16.9217 22.1534C16.8445 22.1431 16.7661 22.1483 16.691 22.1687C16.6159 22.189 16.5456 22.2241 16.4842 22.2718C16.4228 22.3196 16.3715 22.3791 16.3333 22.4469C16.2951 22.5147 16.2707 22.5894 16.2617 22.6667C16.2458 22.8217 16.2904 22.9767 16.386 23.0997C16.4816 23.2226 16.6209 23.3039 16.775 23.3267L20.4417 24.0417C20.4949 24.0861 20.544 24.1352 20.5883 24.1884Z" fill="#6308FD"/>
<path d="M22.825 45.1617C22.6871 45.1616 22.5546 45.2151 22.4554 45.3108C22.3562 45.4066 22.2981 45.5372 22.2934 45.675C22.2281 46.2363 22.1302 46.7934 22 47.3433C21.9135 47.7692 21.7104 48.1627 21.4134 48.48C21.256 48.663 21.0539 48.802 20.8267 48.8833C20.4986 49.0214 20.1617 49.1377 19.8184 49.2317C19.0127 49.4017 18.1989 49.5302 17.38 49.6167C17.2956 49.6016 17.2088 49.6052 17.1259 49.6272C17.043 49.6493 16.966 49.6892 16.9002 49.7443C16.8344 49.7993 16.7815 49.8682 16.7452 49.9459C16.7089 50.0236 16.6901 50.1084 16.6901 50.1942C16.6901 50.2799 16.7089 50.3647 16.7452 50.4424C16.7815 50.5202 16.8344 50.589 16.9002 50.644C16.966 50.6991 17.043 50.7391 17.1259 50.7611C17.2088 50.7832 17.2956 50.7868 17.38 50.7717C18.6591 51.0029 19.9693 51.0029 21.2484 50.7717C21.9794 50.6105 22.6292 50.1946 23.0817 49.5983C23.3809 49.0701 23.5564 48.4809 23.595 47.875C23.6001 47.1316 23.5387 46.3892 23.4117 45.6567C23.4099 45.5842 23.3927 45.5129 23.3613 45.4475C23.3299 45.3821 23.285 45.3241 23.2296 45.2774C23.1741 45.2306 23.1094 45.1961 23.0397 45.1762C22.97 45.1562 22.8968 45.1513 22.825 45.1617Z" fill="#6308FD"/>
<path d="M13.6033 22.2083C12.8033 21.968 11.9889 21.7782 11.165 21.64C10.549 21.5811 9.92734 21.6371 9.33168 21.805C8.76441 21.9443 8.24526 22.2341 7.82901 22.6439C7.41275 23.0537 7.11483 23.5683 6.96668 24.1333C6.93786 24.2078 6.92454 24.2873 6.92754 24.3671C6.93054 24.4469 6.94979 24.5252 6.98411 24.5973C7.01844 24.6694 7.06712 24.7337 7.12717 24.7863C7.18722 24.8389 7.25738 24.8787 7.33335 24.9033C7.4816 24.9429 7.63948 24.9229 7.77314 24.8475C7.9068 24.7721 8.0056 24.6474 8.04835 24.5C8.18435 24.2901 8.36185 24.1103 8.56994 23.9715C8.77803 23.8328 9.0123 23.7381 9.25835 23.6933C9.49926 23.6361 9.74458 23.5993 9.99168 23.5833C10.3767 23.5833 10.7983 23.5833 11.22 23.4733L13.5667 23.235C13.6405 23.238 13.7141 23.2251 13.7825 23.1971C13.8509 23.1691 13.9124 23.1267 13.9629 23.0728C14.0134 23.0188 14.0516 22.9546 14.075 22.8845C14.0984 22.8144 14.1063 22.7401 14.0983 22.6666C14.0891 22.5418 14.0329 22.4251 13.941 22.3401C13.8492 22.255 13.7285 22.208 13.6033 22.2083Z" fill="#6308FD"/>
<path d="M13.53 49.5616C12.65 49.5616 11.3483 49.4516 10.1383 49.25C9.76771 49.2145 9.40373 49.1282 9.05668 48.9933C8.86036 48.9389 8.67448 48.8522 8.50668 48.7366C8.32301 48.5071 8.19726 48.2367 8.14001 47.9483C8.03281 47.5014 7.95322 47.0483 7.90168 46.5916C7.88923 46.4451 7.82535 46.3077 7.72135 46.2036C7.61734 46.0996 7.4799 46.0358 7.33334 46.0233C7.25629 46.0257 7.18046 46.0432 7.11019 46.0749C7.03991 46.1066 6.97657 46.1518 6.92379 46.208C6.87101 46.2642 6.82982 46.3303 6.80258 46.4024C6.77533 46.4745 6.76257 46.5513 6.76501 46.6283C6.69161 47.3537 6.69161 48.0846 6.76501 48.81C6.81786 49.2682 7.00255 49.7013 7.29668 50.0567C8.01751 50.7537 8.97121 51.1587 9.97335 51.1933C11.2145 51.1304 12.4445 50.9274 13.64 50.5883C13.7762 50.5883 13.9067 50.5342 14.003 50.438C14.0993 50.3417 14.1533 50.2111 14.1533 50.075C14.1533 49.9388 14.0993 49.8083 14.003 49.712C13.9067 49.6157 13.7762 49.5616 13.64 49.5616H13.53Z" fill="#6308FD"/>
</g>
<rect x="6" y="0.416748" width="44" height="44.6122" rx="15" fill="#7C3AED" fill-opacity="0.16"/>
<defs>
<clipPath id="clip0_10435_567">
<rect width="44" height="44" fill="white" transform="translate(0 8)"/>
</clipPath>
</defs>
</svg>
