<svg width="50" height="52" viewBox="0 0 50 52" fill="none" xmlns="http://www.w3.org/2000/svg">
<g clip-path="url(#clip0_10435_593)">
<path fill-rule="evenodd" clip-rule="evenodd" d="M22.8067 26.8466L22.9167 25.27C22.9487 24.645 22.7906 24.025 22.4634 23.4916C22.1361 22.9581 21.655 22.5363 21.0834 22.2816C19.5987 21.8162 18.0556 21.5632 16.5 21.53C15.3799 21.3917 14.2469 21.3917 13.1267 21.53C12.2542 21.6486 11.437 22.0253 10.78 22.6116C10.3523 23.0282 10.0478 23.5548 9.90005 24.1333C9.70785 25.0861 9.64006 26.0598 9.69838 27.03C7.86505 27.03 5.92171 27.195 4.03338 27.195C3.89237 27.195 3.75714 27.251 3.65744 27.3507C3.55773 27.4504 3.50171 27.5856 3.50171 27.7266C3.50171 27.8676 3.55773 28.0029 3.65744 28.1026C3.75714 28.2023 3.89237 28.2583 4.03338 28.2583C7.93838 28.5333 11.8617 28.7166 15.8034 28.7716H21.6517H27.4817C29.425 28.7716 30.855 28.9733 32.5417 29.1566C32.8134 30.3276 32.9 31.5339 32.7984 32.7316C32.8553 34.0698 32.4034 35.3799 31.5334 36.3983C30.8893 36.6453 30.2065 36.7757 29.5167 36.7833L26.4367 37.095L20.5334 37.5716V36.93C20.4364 36.3391 20.1778 35.7867 19.7863 35.3337C19.3948 34.8807 18.8856 34.5448 18.315 34.3633C17.7457 34.1842 17.1354 34.183 16.5654 34.3599C15.9954 34.5368 15.4929 34.8834 15.125 35.3533C14.6417 35.9696 14.3315 36.7038 14.2267 37.48C14.2267 37.48 14.2267 37.6266 14.2267 37.6816C12.87 37.5716 9.99171 37.425 7.40671 37.1133C6.49485 37.0255 5.58887 36.8847 4.69338 36.6916C4.22416 36.6298 3.77386 36.4672 3.37338 36.215C2.57194 35.5911 2.051 34.6745 1.92505 33.6666C1.76942 31.9695 1.80016 30.2604 2.01671 28.57C2.03648 28.4965 2.04024 28.4196 2.02773 28.3445C2.01522 28.2694 1.98674 28.1979 1.9442 28.1348C1.90167 28.0717 1.84609 28.0184 1.7812 27.9786C1.71631 27.9389 1.64364 27.9135 1.5681 27.9042C1.49255 27.8949 1.4159 27.902 1.34331 27.9249C1.27073 27.9478 1.20391 27.986 1.14737 28.0369C1.09083 28.0879 1.04589 28.1504 1.01558 28.2202C0.985278 28.29 0.970318 28.3655 0.971714 28.4416C0.52442 30.2106 0.284473 32.0256 0.256714 33.85C0.272185 35.2712 0.837223 36.6312 1.83338 37.645C3.02805 38.3954 4.4015 38.8132 5.81171 38.855C8.5352 39.0052 11.2649 39.0052 13.9884 38.855C14.0125 39.4137 14.0676 39.9707 14.1534 40.5233C14.1717 40.6627 14.2427 40.7897 14.3519 40.8784C14.461 40.967 14.5999 41.0105 14.74 41C14.8746 40.9817 14.997 40.9126 15.0822 40.8069C15.1674 40.7012 15.209 40.567 15.1984 40.4316C15.154 39.666 15.1909 38.8978 15.3084 38.14C15.3971 37.4966 15.7008 36.9022 16.17 36.4533C16.3395 36.278 16.5579 36.1579 16.7967 36.1088C17.0355 36.0598 17.2836 36.084 17.5084 36.1783C17.7317 36.2576 17.9288 36.3972 18.0776 36.5817C18.2265 36.7662 18.3214 36.9882 18.3517 37.2233C18.3517 37.535 18.4434 37.865 18.48 38.2133C18.5349 38.719 18.5349 39.2292 18.48 39.735C18.4151 40.2433 18.2399 40.7314 17.9667 41.165C17.7245 41.4721 17.4178 41.7224 17.0684 41.8983C16.9431 41.9893 16.7991 42.0513 16.6469 42.0798C16.4948 42.1084 16.3381 42.1027 16.1884 42.0633C16.1029 42.0107 16.0282 41.9423 15.9684 41.8616C15.8667 41.7024 15.7748 41.5371 15.6934 41.3666C15.6395 41.2162 15.5282 41.0933 15.384 41.0246C15.2397 40.9559 15.0741 40.947 14.9234 41C14.8516 41.0316 14.7869 41.0773 14.7332 41.1344C14.6794 41.1914 14.6376 41.2587 14.6102 41.3322C14.5829 41.4057 14.5705 41.4839 14.5739 41.5623C14.5774 41.6406 14.5964 41.7175 14.63 41.7883C14.718 42.0715 14.8412 42.3425 14.9967 42.595C15.1415 42.8132 15.3285 43.0002 15.5467 43.145C15.8227 43.3021 16.1292 43.3981 16.4455 43.4266C16.7617 43.4551 17.0805 43.4153 17.38 43.31C18.1287 43.1052 18.8071 42.6994 19.3417 42.1366C19.8589 41.5334 20.2124 40.8074 20.3684 40.0283C20.4695 39.5829 20.5248 39.1283 20.5334 38.6716C22.4584 38.6716 25.74 38.8916 28.38 38.6716C29.9011 38.7027 31.4082 38.3762 32.78 37.7183C33.7796 36.5977 34.3339 35.1499 34.3384 33.6483C34.8334 26.8283 33.2934 27.36 22.8067 26.8466ZM14.52 26.8466L10.7434 26.9933C10.8 26.3121 10.9165 25.6373 11.0917 24.9766C11.1959 24.5527 11.4338 24.1734 11.77 23.895C12.233 23.6092 12.766 23.4569 13.31 23.455C14.2964 23.4105 15.2847 23.4596 16.2617 23.6016H18.095C18.8729 23.556 19.6529 23.6365 20.405 23.84C20.7392 23.9435 21.0339 24.1463 21.2501 24.4214C21.4662 24.6965 21.5935 25.0308 21.615 25.38V26.7733C19.25 26.7 16.885 26.7 14.52 26.755V26.8466Z" fill="#EC1358"/>
<path fill-rule="evenodd" clip-rule="evenodd" d="M31.2768 39.1666C31.1997 39.1642 31.1229 39.177 31.0508 39.2042C30.9787 39.2315 30.9127 39.2726 30.8565 39.3254C30.8003 39.3782 30.7551 39.4415 30.7234 39.5118C30.6917 39.5821 30.6741 39.6579 30.6718 39.735L30.3051 46.445C30.332 47.0789 30.2766 47.7137 30.1401 48.3333C30.0836 48.6424 29.9294 48.9252 29.7001 49.14C29.1568 49.5186 28.5257 49.7521 27.8668 49.8183C26.7386 49.9934 25.5984 50.0792 24.4568 50.075H20.0201C16.5184 49.9467 12.9984 49.7083 9.47844 49.69C8.10471 49.7735 6.72717 49.7735 5.35344 49.69C4.58521 49.6716 3.84436 49.401 3.24511 48.92C3.04659 48.7092 2.92401 48.4382 2.89677 48.15C2.83648 47.5404 2.83648 46.9263 2.89677 46.3166V41.4766V39.4233C2.91363 39.3535 2.91656 39.281 2.90541 39.2101C2.89426 39.1391 2.86925 39.0711 2.8318 39.0098C2.79434 38.9485 2.74519 38.8952 2.68713 38.8529C2.62908 38.8106 2.56326 38.7802 2.49344 38.7633C2.42362 38.7465 2.35116 38.7435 2.28021 38.7547C2.20926 38.7658 2.14119 38.7908 2.07991 38.8283C2.01862 38.8657 1.96531 38.9149 1.92302 38.973C1.88073 39.031 1.85029 39.0968 1.83344 39.1666L1.52177 46.1883C1.43049 46.8995 1.40593 47.6176 1.44844 48.3333C1.49673 48.944 1.7411 49.5228 2.14511 49.9833C2.75926 50.6061 3.54379 51.0334 4.40011 51.2116C6.08818 51.5077 7.80207 51.6305 9.51511 51.5783C12.9984 51.5783 16.5001 51.9266 20.0018 52H24.5851C25.8167 51.959 27.043 51.818 28.2518 51.5783C29.1722 51.4089 30.0357 51.0118 30.7634 50.4233C31.2271 49.9752 31.5354 49.3907 31.6434 48.755C31.766 47.9977 31.809 47.2296 31.7718 46.4633V39.8083C31.7876 39.6582 31.7451 39.5078 31.6529 39.3883C31.5607 39.2688 31.426 39.1894 31.2768 39.1666Z" fill="#EC1358"/>
<path fill-rule="evenodd" clip-rule="evenodd" d="M43.2117 17.4417C42.6984 16.2684 41.8917 15.0767 41.3784 14.1234C41.0484 13.4817 40.7367 12.6017 40.315 11.8867C40.0879 11.4821 39.797 11.1168 39.4534 10.805C38.8563 10.363 38.1668 10.0621 37.4367 9.92502C36.0434 9.61335 34.265 9.54002 33.4034 9.35668C31.9917 9.06335 30.6167 8.62335 29.205 8.33002C28.5535 8.17418 27.8919 8.06392 27.225 8.00002C26.652 7.94352 26.0748 7.94352 25.5017 8.00002C25.1289 8.03738 24.7736 8.17695 24.475 8.40335C24.1328 8.68614 23.9048 9.08351 23.8334 9.52168C23.6134 10.4384 23.595 11.9417 23.4667 12.4367C23.1953 13.3723 22.8521 14.2856 22.44 15.1684C21.78 16.525 21.01 17.8267 20.24 19.0917C20.2024 19.1481 20.1763 19.2115 20.1632 19.2781C20.1502 19.3448 20.1505 19.4133 20.1642 19.4798C20.1778 19.5463 20.2045 19.6094 20.2427 19.6655C20.2809 19.7216 20.3298 19.7696 20.3867 19.8067C20.5036 19.8837 20.6462 19.9115 20.7835 19.8841C20.9208 19.8566 21.0418 19.7761 21.12 19.66C21.9634 18.395 22.825 17.0934 23.5584 15.7184C24.0527 14.795 24.4697 13.8323 24.805 12.84L25.465 9.68668H27.06C27.6424 9.75062 28.2186 9.86097 28.7834 10.0167C30.195 10.365 31.57 10.8417 32.9634 11.19C33.715 11.355 35.1634 11.4467 36.4467 11.685C36.8069 11.7447 37.1623 11.8305 37.51 11.9417C37.345 12.3267 37.18 12.7117 36.9967 13.0784C36.6667 13.775 36.3184 14.435 35.9334 15.095C35.5484 15.755 35.3467 16.0484 35.1084 16.525C34.8753 16.9748 34.738 17.4679 34.705 17.9734C34.6871 18.4906 34.849 18.998 35.1632 19.4092C35.4775 19.8204 35.9246 20.1099 36.4284 20.2284L37.51 20.4667H39.49L41.8367 20.1367C41.8367 20.2834 41.8367 20.4484 41.7084 20.6134C41.4334 21.4384 41.03 22.3184 40.8467 22.905C40.1491 25.3195 39.3042 27.6889 38.3167 30C37.6505 31.4987 36.8722 32.9451 35.9884 34.3267C35.945 34.3917 35.9149 34.4646 35.8998 34.5412C35.8846 34.6179 35.8847 34.6967 35.9 34.7734C35.9153 34.85 35.9456 34.9228 35.9891 34.9877C36.0325 35.0526 36.0884 35.1083 36.1534 35.1517C36.2184 35.195 36.2913 35.2251 36.3679 35.2403C36.4446 35.2555 36.5234 35.2554 36.6 35.24C36.6767 35.2247 36.7495 35.1945 36.8144 35.151C36.8793 35.1075 36.935 35.0517 36.9784 34.9867C37.9545 33.5874 38.813 32.1095 39.545 30.5684C40.6513 28.2821 41.6186 25.9311 42.4417 23.5284C42.68 22.85 43.23 21.805 43.5234 20.87C43.7037 20.365 43.7786 19.8284 43.7434 19.2934C43.6629 18.6524 43.4835 18.0277 43.2117 17.4417ZM39.435 19L37.8034 18.8167L37.1617 18.5784C36.8684 18.45 36.7034 18.3584 36.7034 18.175C36.7393 17.8216 36.8453 17.4788 37.015 17.1667C37.2167 16.745 37.4184 16.2867 37.5834 15.865C37.7484 15.4434 38.005 14.6734 38.1884 14.0317C38.3717 13.39 38.4267 13.1884 38.5367 12.7667C38.5367 12.8584 38.665 12.95 38.72 13.06C39.05 13.72 39.3434 14.4534 39.6367 14.8934C39.93 15.3334 40.755 16.7267 41.2684 17.6067C41.4602 17.9607 41.6257 18.3283 41.7634 18.7067L39.435 19Z" fill="#EC1358"/>
<path fill-rule="evenodd" clip-rule="evenodd" d="M11.7518 20.8333C11.7292 20.8995 11.7205 20.9695 11.726 21.0391C11.7314 21.1088 11.7511 21.1766 11.7837 21.2384C11.8163 21.3002 11.8612 21.3546 11.9156 21.3985C11.97 21.4423 12.0328 21.4746 12.1001 21.4933C12.1719 21.5333 12.2526 21.5547 12.3347 21.5557C12.4169 21.5567 12.498 21.5372 12.5708 21.499C12.6436 21.4608 12.7057 21.4051 12.7515 21.3369C12.7974 21.2687 12.8255 21.1901 12.8334 21.1083C13.3243 19.8715 13.6868 18.5876 13.9151 17.2766C14.0918 15.9753 14.2019 14.6659 14.2451 13.3533C14.2451 13.0783 13.9518 12.18 13.9151 11.63C15.9475 11.7294 17.9732 11.9375 19.9834 12.2533C20.1389 12.2861 20.3011 12.2565 20.4349 12.1707C20.5687 12.0849 20.6633 11.95 20.6984 11.795C20.7113 11.714 20.7077 11.6313 20.6876 11.5519C20.6676 11.4724 20.6316 11.3978 20.5819 11.3327C20.5322 11.2675 20.4698 11.2132 20.3984 11.1729C20.327 11.1326 20.2482 11.1072 20.1668 11.0983C18.0933 10.5169 15.9874 10.0578 13.8601 9.72331C13.5691 9.67823 13.2713 9.70849 12.9953 9.81119C12.7193 9.91389 12.4742 10.0856 12.2834 10.31C12.1458 10.5964 12.0708 10.9089 12.0634 11.2266C12.0634 11.905 12.1734 12.9133 12.0634 13.3166C12.1656 14.8244 12.1656 16.3373 12.0634 17.845C12.034 18.8475 11.9298 19.8463 11.7518 20.8333Z" fill="#EC1358"/>
<path fill-rule="evenodd" clip-rule="evenodd" d="M29.0034 16.085C29.488 16.2953 29.9837 16.479 30.4884 16.635C31.2584 16.8916 32.0284 17.0566 32.7618 17.3316C32.8922 17.411 33.0479 17.4381 33.1975 17.4075C33.3471 17.3769 33.4796 17.2909 33.5684 17.1666C33.6068 17.0983 33.6312 17.0229 33.64 16.945C33.6488 16.8671 33.6418 16.7882 33.6196 16.713C33.5974 16.6378 33.5603 16.5678 33.5106 16.5071C33.4609 16.4465 33.3995 16.3965 33.3301 16.36C32.688 15.8556 32.0076 15.402 31.2951 15.0033C30.9947 14.8286 30.6822 14.6754 30.3601 14.545C30.0301 14.4227 29.7001 14.3127 29.3701 14.215C28.5634 14.0133 27.7751 13.94 26.9868 13.8116C26.8625 13.7894 26.7345 13.8122 26.6255 13.8757C26.5164 13.9393 26.4336 14.0395 26.3917 14.1585C26.3498 14.2776 26.3516 14.4076 26.3968 14.5254C26.442 14.6433 26.5277 14.7412 26.6384 14.8016C27.5001 15.1683 28.1601 15.6816 29.0034 16.085Z" fill="#EC1358"/>
<path fill-rule="evenodd" clip-rule="evenodd" d="M24.7133 18.6334C24.7017 18.7682 24.7401 18.9025 24.8213 19.0108C24.9025 19.119 25.0207 19.1935 25.1533 19.2201C26.0455 19.5207 26.9207 19.8696 27.775 20.2651C28.3746 20.5053 28.9866 20.7134 29.6083 20.8884C30.635 21.2184 31.68 21.4384 32.7617 21.6767C32.8337 21.7057 32.9109 21.7197 32.9885 21.7177C33.0661 21.7157 33.1424 21.6978 33.2129 21.6652C33.2833 21.6325 33.3463 21.5858 33.398 21.5279C33.4496 21.47 33.4889 21.4021 33.5134 21.3284C33.5426 21.2551 33.5567 21.1767 33.5549 21.0978C33.5531 21.0189 33.5354 20.9412 33.5029 20.8693C33.4704 20.7975 33.4237 20.7329 33.3656 20.6794C33.3076 20.626 33.2394 20.5849 33.165 20.5584C32.2667 20.1184 31.46 19.6234 30.5984 19.2017C30.0086 18.9167 29.3952 18.6836 28.765 18.5051C27.6589 18.2539 26.5255 18.143 25.3917 18.1751C25.3166 18.1495 25.2366 18.1416 25.158 18.1521C25.0794 18.1626 25.0043 18.1912 24.9386 18.2356C24.8728 18.28 24.8183 18.339 24.7792 18.408C24.7401 18.4771 24.7176 18.5542 24.7133 18.6334Z" fill="#EC1358"/>
</g>
<rect x="6" y="0.416748" width="44" height="44.6122" rx="15" fill="#EC1358" fill-opacity="0.16"/>
<defs>
<clipPath id="clip0_10435_593">
<rect width="44" height="44" fill="white" transform="translate(0 8)"/>
</clipPath>
</defs>
</svg>
