<svg width="50" height="52" viewBox="0 0 50 52" fill="none" xmlns="http://www.w3.org/2000/svg">
<g clip-path="url(#clip0_10435_607)">
<path fill-rule="evenodd" clip-rule="evenodd" d="M11.5685 46.9766C11.3735 46.5835 11.1336 46.2144 10.8535 45.8766C10.2926 45.3111 9.63425 44.8516 8.91012 44.5199C9.35217 44.3692 9.75646 44.1248 10.0954 43.8034C10.4343 43.4821 10.6999 43.0914 10.8739 42.658C11.048 42.2246 11.1264 41.7587 11.1039 41.2922C11.0814 40.8257 10.9584 40.3696 10.7435 39.9549C10.3483 39.0314 9.67037 38.2571 8.80728 37.7432C7.94418 37.2293 6.94035 37.0023 5.94012 37.0949C5.26263 37.2312 4.62434 37.5177 4.07226 37.9334C3.52018 38.349 3.06837 38.8832 2.75012 39.4966C2.40547 40.1383 2.25977 40.8682 2.3316 41.5931C2.40344 42.318 2.68955 43.005 3.15345 43.5666C3.5327 43.9725 4.00443 44.2807 4.52845 44.4649C3.72637 44.8109 3.00287 45.3161 2.40179 45.9499C2.12166 46.2877 1.88172 46.6568 1.68679 47.0499C1.49403 47.4588 1.35241 47.8898 1.26512 48.3333C1.05732 49.2781 0.964981 50.2446 0.990121 51.2116C0.983074 51.3985 1.04431 51.5816 1.16239 51.7267C1.28047 51.8718 1.44733 51.9689 1.63179 51.9999C1.72821 52.0128 1.82621 52.0063 1.9201 51.9809C2.01398 51.9554 2.10187 51.9116 2.17865 51.8519C2.25543 51.7922 2.31956 51.7178 2.36731 51.633C2.41506 51.5483 2.44548 51.4549 2.45679 51.3583C2.84025 50.3085 3.31891 49.2959 3.88679 48.3333L4.36346 47.3983C4.52846 47.0683 4.63846 46.7383 4.82179 46.4266C5.05785 46.0323 5.33434 45.6636 5.64679 45.3266C5.73422 45.2657 5.80401 45.1827 5.84908 45.0861C5.89415 44.9895 5.91291 44.8828 5.90346 44.7766C6.32521 44.8685 6.75517 44.9177 7.18679 44.9233C7.18679 44.9233 7.27846 44.9233 7.33346 44.8316C7.37097 45.0009 7.4687 45.1507 7.60846 45.2533C7.9209 45.5903 8.19739 45.959 8.43345 46.3533C8.61679 46.6649 8.72679 46.9949 8.89179 47.3249L9.36845 48.2599C9.94142 49.2327 10.4203 50.2579 10.7985 51.3216C10.8094 51.4195 10.8404 51.514 10.8895 51.5993C10.9387 51.6846 11.0049 51.7588 11.0841 51.8174C11.1632 51.8759 11.2536 51.9174 11.3496 51.9394C11.4456 51.9613 11.545 51.9632 11.6418 51.9449C11.8384 51.9176 12.0163 51.8136 12.1365 51.6556C12.2567 51.4976 12.3096 51.2984 12.2835 51.1016C12.3031 50.1338 12.2046 49.1672 11.9901 48.2233C11.9 47.7923 11.7584 47.3738 11.5685 46.9766ZM5.64679 43.2183C5.24809 43.055 4.90898 42.7735 4.67512 42.4116C4.53245 42.1351 4.47379 41.8228 4.50637 41.5134C4.53895 41.2039 4.66133 40.9107 4.85846 40.6699C5.02304 40.3902 5.24564 40.1489 5.51127 39.9623C5.77691 39.7757 6.07942 39.6482 6.39846 39.5883C6.90238 39.503 7.42036 39.5795 7.87815 39.8068C8.33593 40.034 8.71002 40.4003 8.94679 40.8533C9.75346 42.3199 8.39679 44.3549 5.64679 43.2183Z" fill="#009387"/>
<path fill-rule="evenodd" clip-rule="evenodd" d="M26.675 46.9766C26.4801 46.5835 26.2402 46.2144 25.96 45.8766C25.3992 45.3111 24.7408 44.8516 24.0167 44.5199C24.4668 44.3791 24.8807 44.1419 25.2298 43.8248C25.5788 43.5077 25.8546 43.1184 26.0378 42.6838C26.221 42.2493 26.3073 41.7801 26.2907 41.3088C26.2742 40.8375 26.155 40.3755 25.9417 39.9549C25.5465 39.0314 24.8686 38.2571 24.0055 37.7432C23.1424 37.2293 22.1386 37.0023 21.1384 37.0949C20.4444 37.2184 19.7879 37.499 19.2191 37.9153C18.6503 38.3316 18.1842 38.8725 17.8567 39.4966C17.5219 40.1454 17.3885 40.8793 17.4734 41.6044C17.5583 42.3295 17.8578 43.0127 18.3334 43.5666C18.7126 43.9725 19.1843 44.2807 19.7084 44.4649C18.9063 44.8109 18.1828 45.3161 17.5817 45.9499C17.3016 46.2877 17.0616 46.6568 16.8667 47.0499C16.6795 47.4355 16.538 47.8416 16.445 48.2599C16.2372 49.2047 16.1449 50.1712 16.17 51.1383C16.1436 51.3372 16.1959 51.5386 16.3158 51.6995C16.4356 51.8605 16.6136 51.9682 16.8117 51.9999C16.9081 52.0128 17.0061 52.0063 17.1 51.9809C17.1939 51.9554 17.2818 51.9116 17.3586 51.8519C17.4353 51.7922 17.4995 51.7178 17.5472 51.633C17.595 51.5483 17.6254 51.4549 17.6367 51.3583C17.9966 50.311 18.4507 49.2986 18.9934 48.3333L19.47 47.3983C19.635 47.0683 19.745 46.7383 19.9284 46.4266C20.1644 46.0323 20.4409 45.6636 20.7534 45.3266C20.8408 45.2657 20.9106 45.1827 20.9557 45.0861C21.0007 44.9895 21.0195 44.8828 21.01 44.7766C21.4318 44.8685 21.8617 44.9177 22.2934 44.9233C22.2934 44.9233 22.385 44.9233 22.44 44.8316C22.4775 45.0009 22.5753 45.1507 22.715 45.2533C23.0275 45.5903 23.304 45.959 23.54 46.3533C23.7234 46.6649 23.8334 46.9949 23.9984 47.3249L24.475 48.2599C25.048 49.2327 25.5268 50.2579 25.905 51.3216C25.9159 51.4195 25.9469 51.514 25.9961 51.5993C26.0452 51.6846 26.1115 51.7588 26.1906 51.8174C26.2698 51.8759 26.3602 51.9174 26.4562 51.9394C26.5522 51.9613 26.6516 51.9632 26.7484 51.9449C26.945 51.9176 27.1229 51.8136 27.2431 51.6556C27.3633 51.4976 27.4161 51.2984 27.39 51.1016C27.4097 50.1338 27.3112 49.1672 27.0967 48.2233C27.0065 47.7923 26.865 47.3738 26.675 46.9766ZM20.7534 43.2183C20.3547 43.055 20.0156 42.7735 19.7817 42.4116C19.639 42.1351 19.5804 41.8228 19.6129 41.5134C19.6455 41.2039 19.7679 40.9107 19.965 40.6699C20.1296 40.3902 20.3522 40.1489 20.6178 39.9623C20.8835 39.7757 21.186 39.6482 21.505 39.5883C22.009 39.503 22.5269 39.5795 22.9847 39.8068C23.4425 40.034 23.8166 40.4003 24.0534 40.8533C24.86 42.3383 23.5034 44.3366 20.7534 43.2183Z" fill="#009387"/>
<path fill-rule="evenodd" clip-rule="evenodd" d="M41.7819 46.9766C41.5869 46.5835 41.347 46.2144 41.0669 45.8766C40.5401 45.3203 39.9195 44.8611 39.2335 44.5199C39.6756 44.3692 40.0799 44.1248 40.4188 43.8034C40.7577 43.4821 41.0233 43.0914 41.1973 42.658C41.3714 42.2246 41.4498 41.7587 41.4273 41.2922C41.4048 40.8257 41.2818 40.3696 41.0669 39.9549C40.6717 39.0314 39.9938 38.2571 39.1307 37.7432C38.2676 37.2293 37.2637 37.0023 36.2635 37.0949C35.5728 37.221 34.92 37.5028 34.3545 37.9189C33.7891 38.3351 33.3259 38.8747 33.0002 39.4966C32.6555 40.1383 32.5098 40.8682 32.5817 41.5931C32.6535 42.318 32.9396 43.005 33.4035 43.5666C33.788 43.9662 34.2582 44.2733 34.7785 44.4649C33.9709 44.8105 33.2413 45.3156 32.6335 45.9499C32.3534 46.2877 32.1135 46.6568 31.9185 47.0499C31.7313 47.4355 31.5898 47.8416 31.4969 48.2599C31.2706 49.2025 31.1597 50.169 31.1669 51.1383C31.1404 51.3372 31.1927 51.5386 31.3126 51.6995C31.4324 51.8605 31.6104 51.9682 31.8085 51.9999C31.9049 52.0128 32.0029 52.0063 32.0968 51.9809C32.1907 51.9554 32.2786 51.9116 32.3554 51.8519C32.4322 51.7922 32.4963 51.7178 32.544 51.633C32.5918 51.5483 32.6222 51.4549 32.6335 51.3583C33.0287 50.3072 33.5197 49.2946 34.1002 48.3333L34.5769 47.3983C34.7419 47.0683 34.8519 46.7383 35.0352 46.4266C35.2713 46.0323 35.5477 45.6636 35.8602 45.3266C35.9476 45.2657 36.0174 45.1827 36.0625 45.0861C36.1076 44.9895 36.1263 44.8828 36.1169 44.7766C36.5446 44.8697 36.9808 44.9188 37.4185 44.9233C37.4185 44.9233 37.4185 44.9233 37.5469 44.8316C37.5792 45.003 37.6781 45.1546 37.8219 45.2533C38.1343 45.5903 38.4108 45.959 38.6469 46.3533C38.8302 46.6649 38.9402 46.9949 39.1052 47.3249L39.5819 48.2599C40.1548 49.2327 40.6337 50.2579 41.0119 51.3216C41.0228 51.4195 41.0538 51.514 41.1029 51.5993C41.1521 51.6846 41.2183 51.7588 41.2975 51.8174C41.3766 51.8759 41.467 51.9174 41.563 51.9394C41.659 51.9613 41.7585 51.9632 41.8552 51.9449C42.0518 51.9176 42.2297 51.8136 42.3499 51.6556C42.4701 51.4976 42.523 51.2984 42.4969 51.1016C42.5075 50.1201 42.3967 49.1409 42.1669 48.1866C42.0857 47.7698 41.9565 47.3637 41.7819 46.9766ZM35.8785 43.2183C35.4798 43.055 35.1407 42.7735 34.9069 42.4116C34.7642 42.1351 34.7055 41.8228 34.7381 41.5134C34.7707 41.2039 34.8931 40.9107 35.0902 40.6699C35.2548 40.3902 35.4774 40.1489 35.743 39.9623C36.0086 39.7757 36.3112 39.6482 36.6302 39.5883C37.1341 39.503 37.6521 39.5795 38.1099 39.8068C38.5677 40.034 38.9418 40.4003 39.1785 40.8533C39.3139 41.0654 39.3984 41.3059 39.4254 41.556C39.4524 41.8062 39.4212 42.0592 39.3343 42.2953C39.2473 42.5314 39.1069 42.7442 38.924 42.917C38.7412 43.0899 38.5208 43.2181 38.2802 43.2916C37.7669 43.4933 38.2802 43.5666 37.4185 43.5666C36.8901 43.5318 36.3705 43.4143 35.8785 43.2183Z" fill="#009387"/>
<path fill-rule="evenodd" clip-rule="evenodd" d="M29.7917 20.3383C29.5778 19.8573 29.3004 19.4072 28.9667 19C28.1997 18.1429 27.2715 17.4452 26.2351 16.9467C26.7953 16.4584 27.221 15.8346 27.4713 15.1348C27.7217 14.4351 27.7884 13.6829 27.6651 12.95C27.5819 11.7887 27.1324 10.6837 26.3813 9.79421C25.6301 8.90468 24.616 8.27646 23.4851 8C22.36 7.9293 21.2365 8.16056 20.2308 8.66984C19.2252 9.17912 18.3739 9.94793 17.7651 10.8967C17.4184 11.3667 17.1736 11.9039 17.0464 12.474C16.9191 13.044 16.9122 13.6343 17.0261 14.2072C17.14 14.78 17.3722 15.3228 17.7077 15.8008C18.0433 16.2789 18.475 16.6816 18.9751 16.9833H19.1584C18.2254 17.621 17.3702 18.3655 16.6101 19.2017C16.0696 19.7927 15.6187 20.4598 15.2717 21.1817C14.9111 21.8364 14.6878 22.5577 14.6153 23.3016C14.5428 24.0455 14.6227 24.7963 14.8501 25.5083C14.9015 25.6953 15.0249 25.8542 15.1933 25.9504C15.3616 26.0466 15.5612 26.0723 15.7484 26.0217C15.9401 25.9701 16.1036 25.8447 16.2032 25.673C16.3029 25.5012 16.3305 25.297 16.2801 25.105C16.2642 24.6334 16.3716 24.1658 16.5917 23.7483C16.8299 23.2689 17.1057 22.8091 17.4167 22.3733C17.7101 21.915 18.0401 21.4567 18.3334 20.9617C19.0484 19.8617 19.6167 18.7433 20.1667 17.9C20.1667 17.9 20.1667 17.7533 20.2767 17.6617C20.8723 17.8628 21.4865 18.004 22.1101 18.0833C22.2799 18.1101 22.4535 18.0695 22.5939 17.9702C22.7343 17.8709 22.8304 17.7207 22.8617 17.5517C22.8776 17.4662 22.8764 17.3784 22.8583 17.2934C22.8401 17.2083 22.8053 17.1277 22.7559 17.0562C22.7065 16.9846 22.6435 16.9235 22.5704 16.8764C22.4973 16.8293 22.4156 16.7971 22.3301 16.7817C21.8837 16.6829 21.4479 16.5417 21.0284 16.36C20.6406 16.1911 20.2817 15.9621 19.9651 15.6817C19.5561 15.3604 19.2644 14.9133 19.1351 14.4096C19.0059 13.9058 19.0463 13.3735 19.2501 12.895C19.5276 12.3038 19.958 11.7975 20.4967 11.4283C21.2166 10.7908 22.1581 10.4616 23.1184 10.5117C23.7828 10.6343 24.3898 10.9682 24.849 11.4638C25.3081 11.9593 25.595 12.5899 25.6667 13.2617C25.9417 14.6367 25.5567 16.1033 23.9434 16.2317C23.8361 16.2148 23.7264 16.2213 23.6219 16.2508C23.5174 16.2804 23.4205 16.3322 23.338 16.4028C23.2554 16.4733 23.1891 16.561 23.1437 16.6596C23.0982 16.7582 23.0747 16.8656 23.0747 16.9742C23.0747 17.0828 23.0982 17.1901 23.1437 17.2887C23.1891 17.3874 23.2554 17.475 23.338 17.5456C23.4205 17.6161 23.5174 17.668 23.6219 17.6975C23.7264 17.727 23.8361 17.7336 23.9434 17.7167C24.3254 17.7021 24.7027 17.6278 25.0617 17.4967C25.0664 17.5857 25.0901 17.6726 25.1312 17.7517C25.1723 17.8308 25.2299 17.9001 25.3001 17.955C25.9737 18.674 26.536 19.4897 26.9684 20.375L27.5184 21.4383C28.2099 22.6742 28.7047 24.0102 28.9851 25.3983C29.0247 25.581 29.1295 25.7431 29.2799 25.8542C29.4303 25.9653 29.6159 26.0179 29.8022 26.0022C29.9885 25.9865 30.1628 25.9035 30.2924 25.7688C30.422 25.6341 30.4982 25.4568 30.5067 25.27C30.5737 24.1096 30.4936 22.9453 30.2684 21.805C30.1703 21.2984 30.0102 20.8058 29.7917 20.3383Z" fill="#009387"/>
<path fill-rule="evenodd" clip-rule="evenodd" d="M27.0969 30.385L23.4302 32.695L23.1552 32.915C23.2835 32.1267 23.4119 31.32 23.4852 30.5134C23.5126 30.1105 23.5126 29.7063 23.4852 29.3034C23.5127 28.9005 23.5127 28.4962 23.4852 28.0934C23.3752 27.14 23.1552 26.26 23.0635 25.2884C23.0792 25.1936 23.0745 25.0965 23.0499 25.0036C23.0252 24.9107 22.981 24.8241 22.9204 24.7496C22.8597 24.6751 22.7839 24.6143 22.6979 24.5713C22.612 24.5282 22.5179 24.504 22.4219 24.5C22.2497 24.4899 22.0805 24.5475 21.9503 24.6606C21.8201 24.7736 21.7393 24.9332 21.7252 25.105C21.4193 26.0439 21.1924 27.0067 21.0469 27.9834C21.0195 28.3985 21.0195 28.8149 21.0469 29.23C21.0499 29.6411 21.0805 30.0515 21.1385 30.4584C21.1385 31.155 21.3402 31.8334 21.4685 32.53C21.2485 32.365 21.0102 32.2184 20.7719 32.0717C19.7269 31.43 18.6635 30.88 17.6002 30.2384C17.5328 30.1866 17.4559 30.1486 17.3738 30.1266C17.2917 30.1046 17.2061 30.0989 17.1218 30.11C17.0375 30.1211 16.9562 30.1486 16.8826 30.1911C16.809 30.2336 16.7445 30.2901 16.6927 30.3575C16.6409 30.425 16.603 30.5019 16.5809 30.584C16.5589 30.6661 16.5533 30.7517 16.5643 30.836C16.5754 30.9202 16.603 31.0015 16.6454 31.0751C16.6879 31.1488 16.7445 31.2133 16.8119 31.265L20.4785 34.84C20.8176 35.2099 21.1789 35.5589 21.5602 35.885C21.7574 36.0461 21.9949 36.1501 22.247 36.1856C22.4992 36.2212 22.7562 36.187 22.9902 36.0867C23.2922 35.9399 23.5704 35.7483 23.8152 35.5184C24.2185 35.1517 24.5669 34.6567 24.8785 34.345L27.9952 31.5217C28.0749 31.4638 28.1421 31.3905 28.1928 31.3061C28.2435 31.2216 28.2767 31.1279 28.2904 31.0304C28.3041 30.9328 28.298 30.8335 28.2725 30.7384C28.247 30.6433 28.2025 30.5543 28.1419 30.4767C28.014 30.3282 27.8332 30.2356 27.638 30.2184C27.4428 30.2013 27.2486 30.2611 27.0969 30.385Z" fill="#009387"/>
<path fill-rule="evenodd" clip-rule="evenodd" d="M12.6133 30.9167C11.8617 31.3017 11.1283 31.6867 10.4317 32.1084C9.91731 32.3814 9.42127 32.6876 8.94668 33.025H8.83668C9.02419 32.2482 9.25681 31.4831 9.53334 30.7334C9.75334 30.2384 9.97334 29.7434 10.2117 29.2667C10.4512 28.8132 10.7143 28.3726 11 27.9467C11.5781 26.8322 12.3838 25.8516 13.365 25.0684C13.5116 24.9771 13.6179 24.8333 13.6622 24.6664C13.7065 24.4995 13.6854 24.322 13.6033 24.17C13.5632 24.0923 13.5075 24.0236 13.4398 23.9682C13.3721 23.9127 13.2937 23.8717 13.2096 23.8477C13.1255 23.8236 13.0373 23.8171 12.9505 23.8284C12.8637 23.8397 12.7802 23.8686 12.705 23.9134C11.277 24.4739 10.0152 25.3888 9.03834 26.5717C8.61246 27.0789 8.25496 27.6398 7.97501 28.24C7.6968 28.8267 7.4817 29.4412 7.33334 30.0734C7.13543 30.8599 7.01871 31.6647 6.98501 32.475L3.31834 29.5417C3.25703 29.4802 3.18417 29.4313 3.10394 29.398C3.02372 29.3647 2.93771 29.3476 2.85084 29.3476C2.76398 29.3476 2.67797 29.3647 2.59774 29.398C2.51752 29.4313 2.44466 29.4802 2.38334 29.5417C2.26868 29.6668 2.20508 29.8303 2.20508 30C2.20508 30.1697 2.26868 30.3333 2.38334 30.4584L5.90334 34.7667L6.89334 35.72C6.78334 35.8484 7.29668 36.0867 7.44334 36.16C7.64529 36.2697 7.87396 36.3205 8.10334 36.3067C8.52651 36.2951 8.93851 36.1683 9.29501 35.94C9.744 35.5928 10.1612 35.2062 10.5417 34.785C10.8533 34.3964 11.1837 34.0232 11.5317 33.6667L13.365 32.145C13.5081 32.0268 13.6024 31.8598 13.6298 31.6763C13.6571 31.4927 13.6156 31.3055 13.5131 31.1507C13.4107 30.9959 13.2546 30.8845 13.075 30.8379C12.8953 30.7913 12.7048 30.8128 12.54 30.8984L12.6133 30.9167Z" fill="#009387"/>
<path fill-rule="evenodd" clip-rule="evenodd" d="M42.8085 29.505C42.7488 29.4441 42.6775 29.3956 42.5988 29.3625C42.5201 29.3295 42.4356 29.3124 42.3502 29.3124C42.2648 29.3124 42.1803 29.3295 42.1016 29.3625C42.0229 29.3956 41.9516 29.4441 41.8919 29.505L38.2252 32.4384C38.1825 31.6289 38.0659 30.825 37.8769 30.0367C37.7218 29.4041 37.5006 28.7896 37.2169 28.2034C36.9365 27.6075 36.5857 27.0473 36.1719 26.535C35.1875 25.3602 33.9279 24.4469 32.5052 23.8767C32.4294 23.8334 32.3457 23.8054 32.2591 23.7944C32.1724 23.7834 32.0845 23.7895 32.0002 23.8125C31.9159 23.8355 31.837 23.8748 31.768 23.9283C31.6989 23.9818 31.641 24.0484 31.5977 24.1242C31.5544 24.2 31.5264 24.2837 31.5154 24.3703C31.5044 24.457 31.5105 24.5449 31.5335 24.6292C31.5565 24.7135 31.5959 24.7924 31.6493 24.8615C31.7028 24.9305 31.7694 24.9884 31.8452 25.0317C32.8397 25.8112 33.6581 26.7921 34.2469 27.91C34.5035 28.3684 34.7602 28.8267 34.9985 29.3034C35.2369 29.78 35.4569 30.275 35.6769 30.77C35.8969 31.265 36.1352 32.2917 36.3552 33.0617H36.2635C35.7685 32.7317 35.2919 32.42 34.7785 32.145C34.2652 31.87 33.3302 31.3384 32.5785 30.9534C32.4126 30.8488 32.2123 30.8133 32.0204 30.8544C31.8286 30.8955 31.6605 31.01 31.5519 31.1734C31.4977 31.2548 31.4604 31.3463 31.4421 31.4425C31.4238 31.5386 31.425 31.6374 31.4455 31.7331C31.466 31.8287 31.5054 31.9193 31.5615 31.9995C31.6175 32.0797 31.6891 32.1479 31.7719 32.2L33.6052 33.7217C33.9902 34.0517 34.3569 34.4184 34.7235 34.785C35.0996 35.2106 35.5172 35.5975 35.9702 35.94C36.3202 36.1677 36.7262 36.2945 37.1435 36.3067C37.373 36.3215 37.602 36.2706 37.8035 36.16C37.9685 36.16 38.4819 35.8484 38.3535 35.72L39.3619 34.7667L42.8635 30.4584C42.927 30.3944 42.9763 30.3178 43.0082 30.2336C43.0401 30.1494 43.0539 30.0594 43.0487 29.9694C43.0435 29.8795 43.0194 29.7917 42.9781 29.7117C42.9367 29.6317 42.8789 29.5612 42.8085 29.505Z" fill="#009387"/>
</g>
<rect x="6" y="0.416748" width="44" height="44.6122" rx="15" fill="#009387" fill-opacity="0.16"/>
<defs>
<clipPath id="clip0_10435_607">
<rect width="44" height="44" fill="white" transform="translate(0 8)"/>
</clipPath>
</defs>
</svg>
