<svg width="50" height="52" viewBox="0 0 50 52" fill="none" xmlns="http://www.w3.org/2000/svg">
<g clip-path="url(#clip0_10435_638)">
<path fill-rule="evenodd" clip-rule="evenodd" d="M44.0001 47.9851C44.0161 47.053 43.8198 46.1295 43.4259 45.2845C43.032 44.4396 42.451 43.6954 41.7268 43.1084C41.244 42.8226 40.7175 42.6182 40.1684 42.5034C43.1201 40.1934 42.7351 34.6751 38.8118 33.8684C38.654 33.8502 38.495 33.8912 38.3657 33.9834C38.2363 34.0756 38.1458 34.2125 38.1116 34.3676C38.0774 34.5227 38.1019 34.685 38.1804 34.8231C38.259 34.9612 38.3859 35.0652 38.5368 35.1151C41.5984 35.8484 41.2868 42.4484 35.6218 41.2751C32.0834 40.4867 32.7068 34.1984 37.4551 34.5467C37.5908 34.5395 37.7195 34.4839 37.8177 34.39C37.916 34.2961 37.9773 34.1701 37.9906 34.0348C38.0039 33.8996 37.9683 33.764 37.8902 33.6528C37.8122 33.5415 37.6968 33.4619 37.5651 33.4284C36.4325 33.2418 35.27 33.4388 34.2622 33.9881C33.2543 34.5374 32.4587 35.4076 32.0017 36.4605C31.5447 37.5135 31.4525 38.6889 31.7397 39.8003C32.0268 40.9116 32.6769 41.8953 33.5868 42.5951C32.7539 42.8772 32.0028 43.3589 31.3988 43.998C30.7948 44.6371 30.3564 45.4143 30.1218 46.2617C29.5123 45.0456 28.4737 44.0985 27.2068 43.6034C25.1168 42.7967 25.3734 43.3834 26.3451 42.5584C30.1401 39.4417 29.5718 31.9984 24.5118 30.9717C24.354 30.9535 24.195 30.9945 24.0657 31.0867C23.9363 31.1789 23.8458 31.3158 23.8116 31.4709C23.7774 31.6261 23.8019 31.7884 23.8804 31.9264C23.959 32.0645 24.086 32.1685 24.2368 32.2184C29.1868 33.4651 28.1418 43.6584 20.0018 41.6784C14.6851 40.5784 15.4551 30.8434 22.6418 31.4301C22.714 31.4373 22.7869 31.4302 22.8564 31.4092C22.9259 31.3883 22.9906 31.3538 23.0468 31.3079C23.103 31.2619 23.1495 31.2053 23.1839 31.1414C23.2182 31.0774 23.2395 31.0073 23.2468 30.9351C23.254 30.8628 23.2469 30.7899 23.2259 30.7204C23.205 30.6509 23.1705 30.5862 23.1246 30.5301C23.0786 30.4739 23.022 30.4273 22.9581 30.393C22.8941 30.3587 22.824 30.3373 22.7518 30.3301C21.162 30.0873 19.5371 30.4005 18.1515 31.2169C16.7658 32.0333 15.7044 33.3028 15.1463 34.8112C14.5882 36.3195 14.5677 37.9741 15.0883 39.4958C15.6088 41.0175 16.6385 42.3129 18.0034 43.1634C16.9248 43.6177 15.923 44.2361 15.0334 44.9967C13.2001 46.5551 14.3551 46.7384 13.3834 44.8317C12.8959 43.8275 12.0435 43.0471 11.0001 42.6501C10.1751 42.3934 10.3034 42.5034 10.4134 42.4117C11.4297 41.5246 12.0764 40.2886 12.2258 38.9479C12.3751 37.6071 12.0163 36.2591 11.2201 35.1701C10.4318 34.2717 8.4701 33.1901 8.21343 34.3267C8.18478 34.4889 8.2178 34.6559 8.30599 34.795C8.39419 34.9341 8.53119 35.0352 8.6901 35.0784C11.0001 35.7201 11.0001 39.4784 9.16677 40.8717C8.65525 41.1749 8.08587 41.3674 7.49536 41.4368C6.90485 41.5063 6.30633 41.4512 5.73843 41.2751C2.2001 40.4867 2.8051 34.1984 7.57177 34.5467C7.70749 34.5395 7.83614 34.4839 7.93439 34.39C8.03264 34.2961 8.09398 34.1701 8.10728 34.0348C8.12058 33.8996 8.08497 33.764 8.00691 33.6528C7.92884 33.5415 7.81349 33.4619 7.68177 33.4284C6.54918 33.2418 5.38671 33.4388 4.37883 33.9881C3.37094 34.5374 2.57538 35.4076 2.1184 36.4605C1.66141 37.5135 1.56917 38.6889 1.85633 39.8003C2.14348 40.9116 2.79357 41.8953 3.70343 42.5951C2.58321 43.0007 1.60319 43.7198 0.8801 44.6667C0.493662 45.1869 0.216484 45.78 0.0652503 46.4101C-0.0859835 47.0402 -0.108145 47.6945 0.000100203 48.3334C0.0239087 48.4644 0.0929217 48.5828 0.195107 48.6681C0.297293 48.7534 0.426169 48.8001 0.559267 48.8001C0.692365 48.8001 0.821241 48.7534 0.923426 48.6681C1.02561 48.5828 1.09463 48.4644 1.11843 48.3334C1.46557 47.2346 2.09824 46.2476 2.95177 45.4734C3.57001 44.6855 4.31319 44.0043 5.15177 43.4567C6.24869 43.6984 7.38819 43.667 8.4701 43.3651C9.57286 43.8466 10.5281 44.6121 11.2384 45.5834C11.8839 46.3494 12.4207 47.2007 12.8334 48.1134C12.421 49.1228 12.2758 50.2215 12.4118 51.3034C12.4356 51.4344 12.5046 51.5528 12.6068 51.6381C12.709 51.7234 12.8378 51.7701 12.9709 51.7701C13.104 51.7701 13.2329 51.7234 13.3351 51.6381C13.4373 51.5528 13.5063 51.4344 13.5301 51.3034C13.656 50.2186 14.0813 49.1903 14.7584 48.3334C15.7705 47.017 16.9266 45.8179 18.2051 44.7584L19.4151 43.9517C19.4977 43.9274 19.5732 43.8834 19.6351 43.8234C21.0629 44.1681 22.5523 44.1681 23.9801 43.8234C26.0434 44.7706 27.7515 46.3503 28.8568 48.3334C29.43 49.2584 29.9032 50.2417 30.2684 51.2667C30.3193 51.4118 30.4206 51.5338 30.5538 51.6105C30.6871 51.6872 30.8434 51.7136 30.9944 51.6847C31.1455 51.6558 31.2811 51.5737 31.3767 51.4532C31.4722 51.3328 31.5213 51.182 31.5151 51.0284C31.4134 50.2161 31.2479 49.413 31.0201 48.6267C31.2584 48.2784 30.9101 48.1684 31.7901 46.7934C31.9184 46.6101 32.9084 45.5284 33.0368 45.3817C33.6458 44.5854 34.3906 43.9027 35.2368 43.3651C36.3161 43.5977 37.4356 43.5662 38.5001 43.2734C39.5584 43.7974 40.4573 44.5949 41.1034 45.5834C41.7848 46.4145 42.3407 47.3411 42.7534 48.3334C42.7996 48.4987 42.9096 48.6389 43.0592 48.7232C43.2087 48.8074 43.3856 48.8288 43.5509 48.7826C43.7163 48.7364 43.8564 48.6264 43.9407 48.4768C44.0249 48.3273 44.0463 48.1504 44.0001 47.9851Z" fill="#DFC600"/>
<path fill-rule="evenodd" clip-rule="evenodd" d="M6.21504 11.8134C6.21504 10.4751 6.74671 10.4017 6.21504 9.98007C5.68337 9.5584 5.50004 9.7234 5.0967 10.9334C4.85837 11.8134 4.80337 13.2251 4.69337 13.7567C3.53051 19.5397 3.35077 25.4773 4.1617 31.3201C4.16772 31.4079 4.19099 31.4938 4.23018 31.5727C4.26937 31.6515 4.32371 31.7219 4.39011 31.7798C4.4565 31.8377 4.53365 31.8819 4.61714 31.91C4.70063 31.9381 4.78883 31.9494 4.8767 31.9434C4.96458 31.9374 5.05041 31.9141 5.12929 31.8749C5.20818 31.8357 5.27857 31.7814 5.33645 31.715C5.39433 31.6486 5.43857 31.5715 5.46664 31.488C5.49471 31.4045 5.50606 31.3163 5.50004 31.2284C5.18837 25.7467 6.1967 12.6201 6.21504 11.8134Z" fill="#DFC600"/>
<path fill-rule="evenodd" clip-rule="evenodd" d="M35.3835 16.4701C26.1033 15.9029 16.7971 15.9029 7.51683 16.4701C6.49016 16.6168 6.49016 17.6068 7.51683 17.6618C10.7435 17.6618 14.2268 18.1018 20.6068 18.1201C26.9868 18.1384 30.9835 17.8084 35.4935 17.6984C35.6233 17.6481 35.7333 17.557 35.8067 17.4387C35.8802 17.3205 35.9132 17.1815 35.9008 17.0429C35.8884 16.9042 35.8312 16.7733 35.7379 16.67C35.6446 16.5667 35.5202 16.4965 35.3835 16.4701Z" fill="#DFC600"/>
<path fill-rule="evenodd" clip-rule="evenodd" d="M9.16679 10.0717C14.5201 10.0717 20.0385 9.76005 25.3918 10.0717C29.2968 10.2917 35.6401 9.92505 37.8951 11.7217C38.3718 12.0884 38.5368 15.7734 38.6835 16.9651C39.3871 21.525 39.5777 26.1494 39.2518 30.7517C39.2348 30.8976 39.2764 31.0442 39.3675 31.1594C39.4586 31.2746 39.5918 31.3489 39.7376 31.3659C39.8835 31.3829 40.0301 31.3413 40.1453 31.2502C40.2605 31.1591 40.3348 31.0259 40.3518 30.8801C40.9161 26.2006 40.9776 21.4742 40.5351 16.7817C40.3885 14.8384 40.6268 11.2817 39.2151 10.0717C36.0618 7.65172 29.6635 8.34838 25.4285 8.18338C19.9285 8.03672 14.4285 8.56838 9.07512 8.80672C8.92578 8.84097 8.79363 8.92753 8.70255 9.05075C8.61148 9.17396 8.56751 9.3257 8.57858 9.47852C8.58966 9.63134 8.65505 9.77515 8.76293 9.88395C8.87081 9.99275 9.01407 10.0594 9.16679 10.0717Z" fill="#DFC600"/>
<path fill-rule="evenodd" clip-rule="evenodd" d="M9.16686 13.9584C9.28209 14.0876 9.42332 14.191 9.58129 14.2618C9.73927 14.3325 9.91042 14.3691 10.0835 14.3691C10.2566 14.3691 10.4278 14.3325 10.5858 14.2618C10.7437 14.191 10.885 14.0876 11.0002 13.9584C11.1399 13.6774 11.1833 13.3582 11.1237 13.0501C11.064 12.742 10.9047 12.462 10.6702 12.2534C9.49686 11.4834 8.04852 12.8034 9.16686 13.9584Z" fill="#DFC600"/>
<path fill-rule="evenodd" clip-rule="evenodd" d="M13.1451 13.5C13.2618 13.6267 13.4035 13.7278 13.5613 13.7969C13.7191 13.8661 13.8895 13.9018 14.0617 13.9018C14.234 13.9018 14.4044 13.8661 14.5621 13.7969C14.7199 13.7278 14.8616 13.6267 14.9784 13.5C15.1536 13.2075 15.2184 12.8619 15.1613 12.5258C15.1041 12.1896 14.9287 11.8849 14.6667 11.6667C13.5484 11.025 12.1001 12.3267 13.1451 13.5Z" fill="#DFC600"/>
<path fill-rule="evenodd" clip-rule="evenodd" d="M17.5818 13.5C17.697 13.6292 17.8382 13.7325 17.9962 13.8033C18.1542 13.8741 18.3253 13.9107 18.4984 13.9107C18.6716 13.9107 18.8427 13.8741 19.0007 13.8033C19.1587 13.7325 19.2999 13.6292 19.4151 13.5C19.6351 13.28 19.7084 12.125 19.1034 11.795C17.9851 11.025 16.5001 12.3267 17.5818 13.5Z" fill="#DFC600"/>
</g>
<rect x="6" y="0.416748" width="44" height="44.6122" rx="15" fill="#DFC600" fill-opacity="0.16"/>
<defs>
<clipPath id="clip0_10435_638">
<rect width="44" height="44" fill="white" transform="translate(0 8)"/>
</clipPath>
</defs>
</svg>
