<svg width="86" height="75" viewBox="0 0 86 75" fill="none" xmlns="http://www.w3.org/2000/svg">
<path d="M0.845703 2.28906C0.845703 1.74219 1.01758 1.28125 1.36133 0.90625C1.7207 0.515625 2.20508 0.320312 2.81445 0.320312C3.43945 0.320312 3.93164 0.515625 4.29102 0.90625C4.65039 1.28125 4.83008 1.74219 4.83008 2.28906C4.83008 2.82031 4.65039 3.27344 4.29102 3.64844C3.93164 4.02344 3.43945 4.21094 2.81445 4.21094C2.20508 4.21094 1.7207 4.02344 1.36133 3.64844C1.01758 3.27344 0.845703 2.82031 0.845703 2.28906ZM12.3301 2.28906C12.3301 1.74219 12.502 1.28125 12.8457 0.90625C13.2051 0.515625 13.6895 0.320312 14.2988 0.320312C14.9238 0.320312 15.416 0.515625 15.7754 0.90625C16.1348 1.28125 16.3145 1.74219 16.3145 2.28906C16.3145 2.82031 16.1348 3.27344 15.7754 3.64844C15.416 4.02344 14.9238 4.21094 14.2988 4.21094C13.6895 4.21094 13.2051 4.02344 12.8457 3.64844C12.502 3.27344 12.3301 2.82031 12.3301 2.28906ZM23.8145 2.28906C23.8145 1.74219 23.9863 1.28125 24.3301 0.90625C24.6895 0.515625 25.1738 0.320312 25.7832 0.320312C26.4082 0.320312 26.9004 0.515625 27.2598 0.90625C27.6191 1.28125 27.7988 1.74219 27.7988 2.28906C27.7988 2.82031 27.6191 3.27344 27.2598 3.64844C26.9004 4.02344 26.4082 4.21094 25.7832 4.21094C25.1738 4.21094 24.6895 4.02344 24.3301 3.64844C23.9863 3.27344 23.8145 2.82031 23.8145 2.28906ZM35.2988 2.28906C35.2988 1.74219 35.4707 1.28125 35.8145 0.90625C36.1738 0.515625 36.6582 0.320312 37.2676 0.320312C37.8926 0.320312 38.3848 0.515625 38.7441 0.90625C39.1035 1.28125 39.2832 1.74219 39.2832 2.28906C39.2832 2.82031 39.1035 3.27344 38.7441 3.64844C38.3848 4.02344 37.8926 4.21094 37.2676 4.21094C36.6582 4.21094 36.1738 4.02344 35.8145 3.64844C35.4707 3.27344 35.2988 2.82031 35.2988 2.28906ZM46.7832 2.28906C46.7832 1.74219 46.9551 1.28125 47.2988 0.90625C47.6582 0.515625 48.1426 0.320312 48.752 0.320312C49.377 0.320312 49.8691 0.515625 50.2285 0.90625C50.5879 1.28125 50.7676 1.74219 50.7676 2.28906C50.7676 2.82031 50.5879 3.27344 50.2285 3.64844C49.8691 4.02344 49.377 4.21094 48.752 4.21094C48.1426 4.21094 47.6582 4.02344 47.2988 3.64844C46.9551 3.27344 46.7832 2.82031 46.7832 2.28906ZM58.2676 2.28906C58.2676 1.74219 58.4395 1.28125 58.7832 0.90625C59.1426 0.515625 59.627 0.320312 60.2363 0.320312C60.8613 0.320312 61.3535 0.515625 61.7129 0.90625C62.0723 1.28125 62.252 1.74219 62.252 2.28906C62.252 2.82031 62.0723 3.27344 61.7129 3.64844C61.3535 4.02344 60.8613 4.21094 60.2363 4.21094C59.627 4.21094 59.1426 4.02344 58.7832 3.64844C58.4395 3.27344 58.2676 2.82031 58.2676 2.28906ZM69.752 2.28906C69.752 1.74219 69.9238 1.28125 70.2676 0.90625C70.627 0.515625 71.1113 0.320312 71.7207 0.320312C72.3457 0.320312 72.8379 0.515625 73.1973 0.90625C73.5566 1.28125 73.7363 1.74219 73.7363 2.28906C73.7363 2.82031 73.5566 3.27344 73.1973 3.64844C72.8379 4.02344 72.3457 4.21094 71.7207 4.21094C71.1113 4.21094 70.627 4.02344 70.2676 3.64844C69.9238 3.27344 69.752 2.82031 69.752 2.28906ZM81.2363 2.28906C81.2363 1.74219 81.4082 1.28125 81.752 0.90625C82.1113 0.515625 82.5957 0.320312 83.2051 0.320312C83.8301 0.320312 84.3223 0.515625 84.6816 0.90625C85.041 1.28125 85.2207 1.74219 85.2207 2.28906C85.2207 2.82031 85.041 3.27344 84.6816 3.64844C84.3223 4.02344 83.8301 4.21094 83.2051 4.21094C82.5957 4.21094 82.1113 4.02344 81.752 3.64844C81.4082 3.27344 81.2363 2.82031 81.2363 2.28906ZM0.845703 16.2891C0.845703 15.7422 1.01758 15.2812 1.36133 14.9062C1.7207 14.5156 2.20508 14.3203 2.81445 14.3203C3.43945 14.3203 3.93164 14.5156 4.29102 14.9062C4.65039 15.2812 4.83008 15.7422 4.83008 16.2891C4.83008 16.8203 4.65039 17.2734 4.29102 17.6484C3.93164 18.0234 3.43945 18.2109 2.81445 18.2109C2.20508 18.2109 1.7207 18.0234 1.36133 17.6484C1.01758 17.2734 0.845703 16.8203 0.845703 16.2891ZM12.3301 16.2891C12.3301 15.7422 12.502 15.2812 12.8457 14.9062C13.2051 14.5156 13.6895 14.3203 14.2988 14.3203C14.9238 14.3203 15.416 14.5156 15.7754 14.9062C16.1348 15.2812 16.3145 15.7422 16.3145 16.2891C16.3145 16.8203 16.1348 17.2734 15.7754 17.6484C15.416 18.0234 14.9238 18.2109 14.2988 18.2109C13.6895 18.2109 13.2051 18.0234 12.8457 17.6484C12.502 17.2734 12.3301 16.8203 12.3301 16.2891ZM23.8145 16.2891C23.8145 15.7422 23.9863 15.2812 24.3301 14.9062C24.6895 14.5156 25.1738 14.3203 25.7832 14.3203C26.4082 14.3203 26.9004 14.5156 27.2598 14.9062C27.6191 15.2812 27.7988 15.7422 27.7988 16.2891C27.7988 16.8203 27.6191 17.2734 27.2598 17.6484C26.9004 18.0234 26.4082 18.2109 25.7832 18.2109C25.1738 18.2109 24.6895 18.0234 24.3301 17.6484C23.9863 17.2734 23.8145 16.8203 23.8145 16.2891ZM35.2988 16.2891C35.2988 15.7422 35.4707 15.2812 35.8145 14.9062C36.1738 14.5156 36.6582 14.3203 37.2676 14.3203C37.8926 14.3203 38.3848 14.5156 38.7441 14.9062C39.1035 15.2812 39.2832 15.7422 39.2832 16.2891C39.2832 16.8203 39.1035 17.2734 38.7441 17.6484C38.3848 18.0234 37.8926 18.2109 37.2676 18.2109C36.6582 18.2109 36.1738 18.0234 35.8145 17.6484C35.4707 17.2734 35.2988 16.8203 35.2988 16.2891ZM46.7832 16.2891C46.7832 15.7422 46.9551 15.2812 47.2988 14.9062C47.6582 14.5156 48.1426 14.3203 48.752 14.3203C49.377 14.3203 49.8691 14.5156 50.2285 14.9062C50.5879 15.2812 50.7676 15.7422 50.7676 16.2891C50.7676 16.8203 50.5879 17.2734 50.2285 17.6484C49.8691 18.0234 49.377 18.2109 48.752 18.2109C48.1426 18.2109 47.6582 18.0234 47.2988 17.6484C46.9551 17.2734 46.7832 16.8203 46.7832 16.2891ZM58.2676 16.2891C58.2676 15.7422 58.4395 15.2812 58.7832 14.9062C59.1426 14.5156 59.627 14.3203 60.2363 14.3203C60.8613 14.3203 61.3535 14.5156 61.7129 14.9062C62.0723 15.2812 62.252 15.7422 62.252 16.2891C62.252 16.8203 62.0723 17.2734 61.7129 17.6484C61.3535 18.0234 60.8613 18.2109 60.2363 18.2109C59.627 18.2109 59.1426 18.0234 58.7832 17.6484C58.4395 17.2734 58.2676 16.8203 58.2676 16.2891ZM69.752 16.2891C69.752 15.7422 69.9238 15.2812 70.2676 14.9062C70.627 14.5156 71.1113 14.3203 71.7207 14.3203C72.3457 14.3203 72.8379 14.5156 73.1973 14.9062C73.5566 15.2812 73.7363 15.7422 73.7363 16.2891C73.7363 16.8203 73.5566 17.2734 73.1973 17.6484C72.8379 18.0234 72.3457 18.2109 71.7207 18.2109C71.1113 18.2109 70.627 18.0234 70.2676 17.6484C69.9238 17.2734 69.752 16.8203 69.752 16.2891ZM81.2363 16.2891C81.2363 15.7422 81.4082 15.2812 81.752 14.9062C82.1113 14.5156 82.5957 14.3203 83.2051 14.3203C83.8301 14.3203 84.3223 14.5156 84.6816 14.9062C85.041 15.2812 85.2207 15.7422 85.2207 16.2891C85.2207 16.8203 85.041 17.2734 84.6816 17.6484C84.3223 18.0234 83.8301 18.2109 83.2051 18.2109C82.5957 18.2109 82.1113 18.0234 81.752 17.6484C81.4082 17.2734 81.2363 16.8203 81.2363 16.2891ZM0.845703 30.2891C0.845703 29.7422 1.01758 29.2812 1.36133 28.9062C1.7207 28.5156 2.20508 28.3203 2.81445 28.3203C3.43945 28.3203 3.93164 28.5156 4.29102 28.9062C4.65039 29.2812 4.83008 29.7422 4.83008 30.2891C4.83008 30.8203 4.65039 31.2734 4.29102 31.6484C3.93164 32.0234 3.43945 32.2109 2.81445 32.2109C2.20508 32.2109 1.7207 32.0234 1.36133 31.6484C1.01758 31.2734 0.845703 30.8203 0.845703 30.2891ZM12.3301 30.2891C12.3301 29.7422 12.502 29.2812 12.8457 28.9062C13.2051 28.5156 13.6895 28.3203 14.2988 28.3203C14.9238 28.3203 15.416 28.5156 15.7754 28.9062C16.1348 29.2812 16.3145 29.7422 16.3145 30.2891C16.3145 30.8203 16.1348 31.2734 15.7754 31.6484C15.416 32.0234 14.9238 32.2109 14.2988 32.2109C13.6895 32.2109 13.2051 32.0234 12.8457 31.6484C12.502 31.2734 12.3301 30.8203 12.3301 30.2891ZM23.8145 30.2891C23.8145 29.7422 23.9863 29.2812 24.3301 28.9062C24.6895 28.5156 25.1738 28.3203 25.7832 28.3203C26.4082 28.3203 26.9004 28.5156 27.2598 28.9062C27.6191 29.2812 27.7988 29.7422 27.7988 30.2891C27.7988 30.8203 27.6191 31.2734 27.2598 31.6484C26.9004 32.0234 26.4082 32.2109 25.7832 32.2109C25.1738 32.2109 24.6895 32.0234 24.3301 31.6484C23.9863 31.2734 23.8145 30.8203 23.8145 30.2891ZM35.2988 30.2891C35.2988 29.7422 35.4707 29.2812 35.8145 28.9062C36.1738 28.5156 36.6582 28.3203 37.2676 28.3203C37.8926 28.3203 38.3848 28.5156 38.7441 28.9062C39.1035 29.2812 39.2832 29.7422 39.2832 30.2891C39.2832 30.8203 39.1035 31.2734 38.7441 31.6484C38.3848 32.0234 37.8926 32.2109 37.2676 32.2109C36.6582 32.2109 36.1738 32.0234 35.8145 31.6484C35.4707 31.2734 35.2988 30.8203 35.2988 30.2891ZM46.7832 30.2891C46.7832 29.7422 46.9551 29.2812 47.2988 28.9062C47.6582 28.5156 48.1426 28.3203 48.752 28.3203C49.377 28.3203 49.8691 28.5156 50.2285 28.9062C50.5879 29.2812 50.7676 29.7422 50.7676 30.2891C50.7676 30.8203 50.5879 31.2734 50.2285 31.6484C49.8691 32.0234 49.377 32.2109 48.752 32.2109C48.1426 32.2109 47.6582 32.0234 47.2988 31.6484C46.9551 31.2734 46.7832 30.8203 46.7832 30.2891ZM58.2676 30.2891C58.2676 29.7422 58.4395 29.2812 58.7832 28.9062C59.1426 28.5156 59.627 28.3203 60.2363 28.3203C60.8613 28.3203 61.3535 28.5156 61.7129 28.9062C62.0723 29.2812 62.252 29.7422 62.252 30.2891C62.252 30.8203 62.0723 31.2734 61.7129 31.6484C61.3535 32.0234 60.8613 32.2109 60.2363 32.2109C59.627 32.2109 59.1426 32.0234 58.7832 31.6484C58.4395 31.2734 58.2676 30.8203 58.2676 30.2891ZM69.752 30.2891C69.752 29.7422 69.9238 29.2812 70.2676 28.9062C70.627 28.5156 71.1113 28.3203 71.7207 28.3203C72.3457 28.3203 72.8379 28.5156 73.1973 28.9062C73.5566 29.2812 73.7363 29.7422 73.7363 30.2891C73.7363 30.8203 73.5566 31.2734 73.1973 31.6484C72.8379 32.0234 72.3457 32.2109 71.7207 32.2109C71.1113 32.2109 70.627 32.0234 70.2676 31.6484C69.9238 31.2734 69.752 30.8203 69.752 30.2891ZM81.2363 30.2891C81.2363 29.7422 81.4082 29.2812 81.752 28.9062C82.1113 28.5156 82.5957 28.3203 83.2051 28.3203C83.8301 28.3203 84.3223 28.5156 84.6816 28.9062C85.041 29.2812 85.2207 29.7422 85.2207 30.2891C85.2207 30.8203 85.041 31.2734 84.6816 31.6484C84.3223 32.0234 83.8301 32.2109 83.2051 32.2109C82.5957 32.2109 82.1113 32.0234 81.752 31.6484C81.4082 31.2734 81.2363 30.8203 81.2363 30.2891ZM0.845703 44.2891C0.845703 43.7422 1.01758 43.2812 1.36133 42.9062C1.7207 42.5156 2.20508 42.3203 2.81445 42.3203C3.43945 42.3203 3.93164 42.5156 4.29102 42.9062C4.65039 43.2812 4.83008 43.7422 4.83008 44.2891C4.83008 44.8203 4.65039 45.2734 4.29102 45.6484C3.93164 46.0234 3.43945 46.2109 2.81445 46.2109C2.20508 46.2109 1.7207 46.0234 1.36133 45.6484C1.01758 45.2734 0.845703 44.8203 0.845703 44.2891ZM12.3301 44.2891C12.3301 43.7422 12.502 43.2812 12.8457 42.9062C13.2051 42.5156 13.6895 42.3203 14.2988 42.3203C14.9238 42.3203 15.416 42.5156 15.7754 42.9062C16.1348 43.2812 16.3145 43.7422 16.3145 44.2891C16.3145 44.8203 16.1348 45.2734 15.7754 45.6484C15.416 46.0234 14.9238 46.2109 14.2988 46.2109C13.6895 46.2109 13.2051 46.0234 12.8457 45.6484C12.502 45.2734 12.3301 44.8203 12.3301 44.2891ZM23.8145 44.2891C23.8145 43.7422 23.9863 43.2812 24.3301 42.9062C24.6895 42.5156 25.1738 42.3203 25.7832 42.3203C26.4082 42.3203 26.9004 42.5156 27.2598 42.9062C27.6191 43.2812 27.7988 43.7422 27.7988 44.2891C27.7988 44.8203 27.6191 45.2734 27.2598 45.6484C26.9004 46.0234 26.4082 46.2109 25.7832 46.2109C25.1738 46.2109 24.6895 46.0234 24.3301 45.6484C23.9863 45.2734 23.8145 44.8203 23.8145 44.2891ZM35.2988 44.2891C35.2988 43.7422 35.4707 43.2812 35.8145 42.9062C36.1738 42.5156 36.6582 42.3203 37.2676 42.3203C37.8926 42.3203 38.3848 42.5156 38.7441 42.9062C39.1035 43.2812 39.2832 43.7422 39.2832 44.2891C39.2832 44.8203 39.1035 45.2734 38.7441 45.6484C38.3848 46.0234 37.8926 46.2109 37.2676 46.2109C36.6582 46.2109 36.1738 46.0234 35.8145 45.6484C35.4707 45.2734 35.2988 44.8203 35.2988 44.2891ZM46.7832 44.2891C46.7832 43.7422 46.9551 43.2812 47.2988 42.9062C47.6582 42.5156 48.1426 42.3203 48.752 42.3203C49.377 42.3203 49.8691 42.5156 50.2285 42.9062C50.5879 43.2812 50.7676 43.7422 50.7676 44.2891C50.7676 44.8203 50.5879 45.2734 50.2285 45.6484C49.8691 46.0234 49.377 46.2109 48.752 46.2109C48.1426 46.2109 47.6582 46.0234 47.2988 45.6484C46.9551 45.2734 46.7832 44.8203 46.7832 44.2891ZM58.2676 44.2891C58.2676 43.7422 58.4395 43.2812 58.7832 42.9062C59.1426 42.5156 59.627 42.3203 60.2363 42.3203C60.8613 42.3203 61.3535 42.5156 61.7129 42.9062C62.0723 43.2812 62.252 43.7422 62.252 44.2891C62.252 44.8203 62.0723 45.2734 61.7129 45.6484C61.3535 46.0234 60.8613 46.2109 60.2363 46.2109C59.627 46.2109 59.1426 46.0234 58.7832 45.6484C58.4395 45.2734 58.2676 44.8203 58.2676 44.2891ZM69.752 44.2891C69.752 43.7422 69.9238 43.2812 70.2676 42.9062C70.627 42.5156 71.1113 42.3203 71.7207 42.3203C72.3457 42.3203 72.8379 42.5156 73.1973 42.9062C73.5566 43.2812 73.7363 43.7422 73.7363 44.2891C73.7363 44.8203 73.5566 45.2734 73.1973 45.6484C72.8379 46.0234 72.3457 46.2109 71.7207 46.2109C71.1113 46.2109 70.627 46.0234 70.2676 45.6484C69.9238 45.2734 69.752 44.8203 69.752 44.2891ZM81.2363 44.2891C81.2363 43.7422 81.4082 43.2812 81.752 42.9062C82.1113 42.5156 82.5957 42.3203 83.2051 42.3203C83.8301 42.3203 84.3223 42.5156 84.6816 42.9062C85.041 43.2812 85.2207 43.7422 85.2207 44.2891C85.2207 44.8203 85.041 45.2734 84.6816 45.6484C84.3223 46.0234 83.8301 46.2109 83.2051 46.2109C82.5957 46.2109 82.1113 46.0234 81.752 45.6484C81.4082 45.2734 81.2363 44.8203 81.2363 44.2891ZM0.845703 58.2891C0.845703 57.7422 1.01758 57.2812 1.36133 56.9062C1.7207 56.5156 2.20508 56.3203 2.81445 56.3203C3.43945 56.3203 3.93164 56.5156 4.29102 56.9062C4.65039 57.2812 4.83008 57.7422 4.83008 58.2891C4.83008 58.8203 4.65039 59.2734 4.29102 59.6484C3.93164 60.0234 3.43945 60.2109 2.81445 60.2109C2.20508 60.2109 1.7207 60.0234 1.36133 59.6484C1.01758 59.2734 0.845703 58.8203 0.845703 58.2891ZM12.3301 58.2891C12.3301 57.7422 12.502 57.2812 12.8457 56.9062C13.2051 56.5156 13.6895 56.3203 14.2988 56.3203C14.9238 56.3203 15.416 56.5156 15.7754 56.9062C16.1348 57.2812 16.3145 57.7422 16.3145 58.2891C16.3145 58.8203 16.1348 59.2734 15.7754 59.6484C15.416 60.0234 14.9238 60.2109 14.2988 60.2109C13.6895 60.2109 13.2051 60.0234 12.8457 59.6484C12.502 59.2734 12.3301 58.8203 12.3301 58.2891ZM23.8145 58.2891C23.8145 57.7422 23.9863 57.2812 24.3301 56.9062C24.6895 56.5156 25.1738 56.3203 25.7832 56.3203C26.4082 56.3203 26.9004 56.5156 27.2598 56.9062C27.6191 57.2812 27.7988 57.7422 27.7988 58.2891C27.7988 58.8203 27.6191 59.2734 27.2598 59.6484C26.9004 60.0234 26.4082 60.2109 25.7832 60.2109C25.1738 60.2109 24.6895 60.0234 24.3301 59.6484C23.9863 59.2734 23.8145 58.8203 23.8145 58.2891ZM35.2988 58.2891C35.2988 57.7422 35.4707 57.2812 35.8145 56.9062C36.1738 56.5156 36.6582 56.3203 37.2676 56.3203C37.8926 56.3203 38.3848 56.5156 38.7441 56.9062C39.1035 57.2812 39.2832 57.7422 39.2832 58.2891C39.2832 58.8203 39.1035 59.2734 38.7441 59.6484C38.3848 60.0234 37.8926 60.2109 37.2676 60.2109C36.6582 60.2109 36.1738 60.0234 35.8145 59.6484C35.4707 59.2734 35.2988 58.8203 35.2988 58.2891ZM46.7832 58.2891C46.7832 57.7422 46.9551 57.2812 47.2988 56.9062C47.6582 56.5156 48.1426 56.3203 48.752 56.3203C49.377 56.3203 49.8691 56.5156 50.2285 56.9062C50.5879 57.2812 50.7676 57.7422 50.7676 58.2891C50.7676 58.8203 50.5879 59.2734 50.2285 59.6484C49.8691 60.0234 49.377 60.2109 48.752 60.2109C48.1426 60.2109 47.6582 60.0234 47.2988 59.6484C46.9551 59.2734 46.7832 58.8203 46.7832 58.2891ZM58.2676 58.2891C58.2676 57.7422 58.4395 57.2812 58.7832 56.9062C59.1426 56.5156 59.627 56.3203 60.2363 56.3203C60.8613 56.3203 61.3535 56.5156 61.7129 56.9062C62.0723 57.2812 62.252 57.7422 62.252 58.2891C62.252 58.8203 62.0723 59.2734 61.7129 59.6484C61.3535 60.0234 60.8613 60.2109 60.2363 60.2109C59.627 60.2109 59.1426 60.0234 58.7832 59.6484C58.4395 59.2734 58.2676 58.8203 58.2676 58.2891ZM69.752 58.2891C69.752 57.7422 69.9238 57.2812 70.2676 56.9062C70.627 56.5156 71.1113 56.3203 71.7207 56.3203C72.3457 56.3203 72.8379 56.5156 73.1973 56.9062C73.5566 57.2812 73.7363 57.7422 73.7363 58.2891C73.7363 58.8203 73.5566 59.2734 73.1973 59.6484C72.8379 60.0234 72.3457 60.2109 71.7207 60.2109C71.1113 60.2109 70.627 60.0234 70.2676 59.6484C69.9238 59.2734 69.752 58.8203 69.752 58.2891ZM81.2363 58.2891C81.2363 57.7422 81.4082 57.2812 81.752 56.9062C82.1113 56.5156 82.5957 56.3203 83.2051 56.3203C83.8301 56.3203 84.3223 56.5156 84.6816 56.9062C85.041 57.2812 85.2207 57.7422 85.2207 58.2891C85.2207 58.8203 85.041 59.2734 84.6816 59.6484C84.3223 60.0234 83.8301 60.2109 83.2051 60.2109C82.5957 60.2109 82.1113 60.0234 81.752 59.6484C81.4082 59.2734 81.2363 58.8203 81.2363 58.2891ZM0.845703 72.2891C0.845703 71.7422 1.01758 71.2812 1.36133 70.9062C1.7207 70.5156 2.20508 70.3203 2.81445 70.3203C3.43945 70.3203 3.93164 70.5156 4.29102 70.9062C4.65039 71.2812 4.83008 71.7422 4.83008 72.2891C4.83008 72.8203 4.65039 73.2734 4.29102 73.6484C3.93164 74.0234 3.43945 74.2109 2.81445 74.2109C2.20508 74.2109 1.7207 74.0234 1.36133 73.6484C1.01758 73.2734 0.845703 72.8203 0.845703 72.2891ZM12.3301 72.2891C12.3301 71.7422 12.502 71.2812 12.8457 70.9062C13.2051 70.5156 13.6895 70.3203 14.2988 70.3203C14.9238 70.3203 15.416 70.5156 15.7754 70.9062C16.1348 71.2812 16.3145 71.7422 16.3145 72.2891C16.3145 72.8203 16.1348 73.2734 15.7754 73.6484C15.416 74.0234 14.9238 74.2109 14.2988 74.2109C13.6895 74.2109 13.2051 74.0234 12.8457 73.6484C12.502 73.2734 12.3301 72.8203 12.3301 72.2891ZM23.8145 72.2891C23.8145 71.7422 23.9863 71.2812 24.3301 70.9062C24.6895 70.5156 25.1738 70.3203 25.7832 70.3203C26.4082 70.3203 26.9004 70.5156 27.2598 70.9062C27.6191 71.2812 27.7988 71.7422 27.7988 72.2891C27.7988 72.8203 27.6191 73.2734 27.2598 73.6484C26.9004 74.0234 26.4082 74.2109 25.7832 74.2109C25.1738 74.2109 24.6895 74.0234 24.3301 73.6484C23.9863 73.2734 23.8145 72.8203 23.8145 72.2891ZM35.2988 72.2891C35.2988 71.7422 35.4707 71.2812 35.8145 70.9062C36.1738 70.5156 36.6582 70.3203 37.2676 70.3203C37.8926 70.3203 38.3848 70.5156 38.7441 70.9062C39.1035 71.2812 39.2832 71.7422 39.2832 72.2891C39.2832 72.8203 39.1035 73.2734 38.7441 73.6484C38.3848 74.0234 37.8926 74.2109 37.2676 74.2109C36.6582 74.2109 36.1738 74.0234 35.8145 73.6484C35.4707 73.2734 35.2988 72.8203 35.2988 72.2891ZM46.7832 72.2891C46.7832 71.7422 46.9551 71.2812 47.2988 70.9062C47.6582 70.5156 48.1426 70.3203 48.752 70.3203C49.377 70.3203 49.8691 70.5156 50.2285 70.9062C50.5879 71.2812 50.7676 71.7422 50.7676 72.2891C50.7676 72.8203 50.5879 73.2734 50.2285 73.6484C49.8691 74.0234 49.377 74.2109 48.752 74.2109C48.1426 74.2109 47.6582 74.0234 47.2988 73.6484C46.9551 73.2734 46.7832 72.8203 46.7832 72.2891ZM58.2676 72.2891C58.2676 71.7422 58.4395 71.2812 58.7832 70.9062C59.1426 70.5156 59.627 70.3203 60.2363 70.3203C60.8613 70.3203 61.3535 70.5156 61.7129 70.9062C62.0723 71.2812 62.252 71.7422 62.252 72.2891C62.252 72.8203 62.0723 73.2734 61.7129 73.6484C61.3535 74.0234 60.8613 74.2109 60.2363 74.2109C59.627 74.2109 59.1426 74.0234 58.7832 73.6484C58.4395 73.2734 58.2676 72.8203 58.2676 72.2891ZM69.752 72.2891C69.752 71.7422 69.9238 71.2812 70.2676 70.9062C70.627 70.5156 71.1113 70.3203 71.7207 70.3203C72.3457 70.3203 72.8379 70.5156 73.1973 70.9062C73.5566 71.2812 73.7363 71.7422 73.7363 72.2891C73.7363 72.8203 73.5566 73.2734 73.1973 73.6484C72.8379 74.0234 72.3457 74.2109 71.7207 74.2109C71.1113 74.2109 70.627 74.0234 70.2676 73.6484C69.9238 73.2734 69.752 72.8203 69.752 72.2891ZM81.2363 72.2891C81.2363 71.7422 81.4082 71.2812 81.752 70.9062C82.1113 70.5156 82.5957 70.3203 83.2051 70.3203C83.8301 70.3203 84.3223 70.5156 84.6816 70.9062C85.041 71.2812 85.2207 71.7422 85.2207 72.2891C85.2207 72.8203 85.041 73.2734 84.6816 73.6484C84.3223 74.0234 83.8301 74.2109 83.2051 74.2109C82.5957 74.2109 82.1113 74.0234 81.752 73.6484C81.4082 73.2734 81.2363 72.8203 81.2363 72.2891Z" fill="#7C3AED" fill-opacity="0.5"/>
</svg>
