<svg width="65" height="61" viewBox="0 0 65 61" fill="none" xmlns="http://www.w3.org/2000/svg">
<rect x="0.641724" y="0.528076" width="64.1407" height="60.472" rx="30" fill="url(#paint0_linear_10435_722)"/>
<path d="M44.0647 18.077H20.65C19.7592 18.077 19.0762 18.8049 19.1801 19.6308L21.8527 42.3361C21.9121 42.896 22.3427 43.3719 22.9218 43.5259L31.949 45.9616C32.2163 46.0316 32.4984 46.0316 32.7657 45.9616L41.7929 43.5259C42.372 43.3719 42.7878 42.896 42.862 42.3361L45.5345 19.6308C45.6385 18.8049 44.9555 18.077 44.0647 18.077ZM38.675 25.7761H27.3018L27.7917 29.9756H37.9326C38.2444 29.9756 38.5414 30.1016 38.7641 30.3255C38.9719 30.5495 39.0759 30.8435 39.0462 31.1374L38.3038 38.1366C38.2593 38.5705 37.9475 38.9205 37.5021 39.0465L32.3054 40.4463C32.2015 40.4743 32.0975 40.4883 31.9936 40.4883C31.8897 40.4883 31.7857 40.4743 31.6818 40.4463L26.4851 39.0465C26.01 38.9205 25.6834 38.5005 25.6834 38.0386V35.2389C25.6834 34.665 26.1882 34.1891 26.7969 34.1891C27.4057 34.1891 27.9105 34.665 27.9105 35.2389V37.2407L31.9936 38.3466L36.1509 37.2267L36.7002 32.0893H26.7969C26.2327 32.0893 25.7576 31.6834 25.6834 31.1514L24.941 24.8522C24.9113 24.5582 25.0004 24.2643 25.2231 24.0403C25.431 23.8163 25.7428 23.6903 26.0546 23.6903H38.675C39.2837 23.6903 39.7886 24.1663 39.7886 24.7402C39.7886 25.3141 39.2837 25.7761 38.675 25.7761Z" fill="white"/>
<defs>
<linearGradient id="paint0_linear_10435_722" x1="37.145" y1="62.8035" x2="9.97636" y2="-0.677209" gradientUnits="userSpaceOnUse">
<stop stop-color="#DC6110"/>
<stop offset="1" stop-color="#FF802C"/>
</linearGradient>
</defs>
</svg>
