<svg width="65" height="61" viewBox="0 0 65 61" fill="none" xmlns="http://www.w3.org/2000/svg">
<rect x="0.285645" y="0.0561523" width="64.1407" height="60.472" rx="30" fill="url(#paint0_linear_10435_725)"/>
<path d="M35.6738 34.304C36.5617 35.6862 37.717 36.7023 39.7602 36.7023C41.4767 36.7023 42.5731 35.8844 42.5731 34.7543C42.5731 33.4 41.4466 32.9204 39.5573 32.1325L38.5217 31.7089C35.5324 30.4948 33.5466 28.9737 33.5466 25.7582C33.5466 22.7962 35.9138 20.5414 39.6133 20.5414C42.2471 20.5414 44.1405 21.4153 45.505 23.7035L42.2793 25.6782C41.569 24.464 40.8028 23.9857 39.6133 23.9857C38.3999 23.9857 37.6309 24.7195 37.6309 25.6782C37.6309 26.863 38.4006 27.3426 40.178 28.0765L41.2136 28.4994C44.7332 29.9384 46.7205 31.4054 46.7205 34.7036C46.7205 38.2593 43.7907 40.2073 39.8561 40.2073C36.0089 40.2073 33.5235 38.4594 32.3073 36.1686L35.6738 34.304ZM21.0402 34.6462C21.691 35.747 22.283 36.6776 23.7062 36.6776C25.0672 36.6776 25.9258 36.1699 25.9258 34.1959V20.7669H30.0682V34.2493C30.0682 38.3387 27.5534 40.2 23.8826 40.2C20.5658 40.2 18.645 38.5635 17.6682 36.5925L21.0402 34.6462Z" fill="white"/>
<defs>
<linearGradient id="paint0_linear_10435_725" x1="36.7889" y1="62.3315" x2="9.62028" y2="-1.14913" gradientUnits="userSpaceOnUse">
<stop stop-color="#DAAD0C"/>
<stop offset="1" stop-color="#FFED00"/>
</linearGradient>
</defs>
</svg>
