<svg width="66" height="61" viewBox="0 0 66 61" fill="none" xmlns="http://www.w3.org/2000/svg">
<rect x="0.929688" y="0.528076" width="64.1407" height="60.472" rx="30" fill="#E23C16"/>
<g clip-path="url(#clip0_10435_736)">
<path d="M49.6863 28.9608L34.3424 14.4952C33.4594 13.6621 32.0262 13.6621 31.1418 14.4952L27.9559 17.4994L31.9975 21.3099C32.9371 21.0109 34.0139 21.2115 34.7625 21.9172C35.515 22.6275 35.726 23.6514 35.4012 24.5401L39.2964 28.2128C40.2388 27.9065 41.3264 28.1044 42.0787 28.8152C43.131 29.8065 43.131 31.4136 42.0787 32.4055C41.8286 32.6414 41.5317 32.8285 41.2049 32.9561C40.8781 33.0838 40.5278 33.1495 40.174 33.1495C39.8203 33.1495 39.47 33.0838 39.1432 32.9561C38.8164 32.8285 38.5195 32.6414 38.2694 32.4055C37.8938 32.051 37.6378 31.5997 37.5335 31.1083C37.4292 30.617 37.4814 30.1075 37.6834 29.644L34.051 26.2194L34.0504 35.2328C34.314 35.3551 34.5546 35.5172 34.7628 35.7126C35.8146 36.7039 35.8146 38.3105 34.7628 39.3039C33.7108 40.2953 32.0056 40.2953 30.9547 39.3039C29.9029 38.3107 29.9029 36.7042 30.9547 35.7126C31.2069 35.4749 31.5066 35.2867 31.8364 35.1588V26.0619C31.5062 25.9345 31.2064 25.7461 30.9547 25.5078C30.1579 24.7571 29.9661 23.6548 30.3748 22.7319L26.3902 18.9752L15.8692 28.8939C15.4447 29.2942 15.2063 29.8371 15.2063 30.4031C15.2063 30.9691 15.4447 31.512 15.8692 31.9123L31.2133 46.378C32.0969 47.211 33.5295 47.211 34.4145 46.378L49.6865 31.9795C50.1109 31.5791 50.3493 31.0362 50.3492 30.4701C50.3492 29.9041 50.1107 29.3612 49.6863 28.9608Z" fill="white"/>
</g>
<defs>
<clipPath id="clip0_10435_736">
<rect width="35.6341" height="33.5959" fill="white" transform="translate(14.9604 13.6384)"/>
</clipPath>
</defs>
</svg>
