<svg width="65" height="61" viewBox="0 0 65 61" fill="none" xmlns="http://www.w3.org/2000/svg">
<rect x="0.57373" y="0.0561523" width="64.1407" height="60.472" rx="30" fill="url(#paint0_linear_10435_728)"/>
<path d="M25.1992 30.3743C25.1992 20.5688 28.57 12.6204 32.7316 12.6204C36.8933 12.6204 40.2641 20.5688 40.2641 30.3743C40.2641 40.1798 36.8933 48.1282 32.7316 48.1282C28.57 48.1282 25.1992 40.1798 25.1992 30.3743Z" stroke="white" stroke-width="2.5" stroke-linecap="round" stroke-linejoin="round"/>
<path d="M28.9183 24.3735C38.0363 19.4699 47.1354 18.2484 49.2407 21.6447C51.3461 25.0411 45.6628 31.7698 36.5449 36.6717C27.4269 41.5735 18.3277 42.7968 16.2224 39.3987C14.1171 36.0023 19.8003 29.2771 28.9183 24.3735Z" stroke="white" stroke-width="2.5" stroke-linecap="round" stroke-linejoin="round"/>
<path d="M36.5449 24.3735C45.6628 29.2736 51.3461 36.0023 49.2407 39.3987C47.1354 42.7968 38.0363 41.5753 28.9183 36.6717C19.8003 31.768 14.1171 25.0428 16.2224 21.6447C18.3258 18.2484 27.4269 19.4699 36.5449 24.3735Z" stroke="white" stroke-width="2.5" stroke-linecap="round" stroke-linejoin="round"/>
<path d="M35.5563 30.3743C35.5563 31.0806 35.2587 31.7579 34.729 32.2574C34.1992 32.7568 33.4808 33.0374 32.7316 33.0374C31.9825 33.0374 31.264 32.7568 30.7343 32.2574C30.2046 31.7579 29.907 31.0806 29.907 30.3743C29.907 29.668 30.2046 28.9906 30.7343 28.4912C31.264 27.9918 31.9825 27.7112 32.7316 27.7112C33.4808 27.7112 34.1992 27.9918 34.729 28.4912C35.2587 28.9906 35.5563 29.668 35.5563 30.3743Z" stroke="white" stroke-width="2.5" stroke-linecap="round" stroke-linejoin="round"/>
<defs>
<linearGradient id="paint0_linear_10435_728" x1="37.077" y1="62.3315" x2="9.90837" y2="-1.14913" gradientUnits="userSpaceOnUse">
<stop offset="0.0729167" stop-color="#1376C6"/>
<stop offset="0.973958" stop-color="#2196F3"/>
</linearGradient>
</defs>
</svg>
