<svg width="50" height="53" viewBox="0 0 50 53" fill="none" xmlns="http://www.w3.org/2000/svg">
<path d="M10.4811 38.476V14.9125C10.4811 11.6398 11.7859 10.3307 15.0275 10.3307H17.1479C20.3895 10.3307 21.6943 11.6398 21.6943 14.9125V38.476C21.6943 41.7487 20.3895 43.0578 17.1479 43.0578H15.0275C11.7859 43.0578 10.4811 41.7487 10.4811 38.476Z" fill="white"/>
<path d="M10.481 28.3306H6.40347C5.56757 28.3306 4.87439 27.5888 4.87439 26.6942C4.87439 25.7997 5.56757 25.0579 6.40347 25.0579H10.481V28.3306Z" fill="white"/>
<path d="M27.8105 25.0579H21.6942V28.3306H27.8105V25.0579Z" fill="white"/>
<path d="M44.1207 28.3306H39.0238V25.0579H44.1207C44.9566 25.0579 45.6498 25.7997 45.6498 26.6942C45.6498 27.5888 44.9566 28.3306 44.1207 28.3306Z" fill="white"/>
<path opacity="0.4" d="M27.8105 34.1124V19.2761C27.8105 16.0034 29.1154 14.6943 32.357 14.6943H34.4773C37.719 14.6943 39.0238 16.0034 39.0238 19.2761V34.1124C39.0238 37.3851 37.719 38.6942 34.4773 38.6942H32.357C29.1154 38.6942 27.8105 37.3851 27.8105 34.1124Z" fill="white"/>
</svg>
